<?xml version="1.0" encoding="UTF-8"?>
<svg id="Layer_2" data-name="Layer 2" xmlns="http://www.w3.org/2000/svg" viewBox="0 0 745 769.46">
  <defs>
    <style>
      .cls-1, .cls-2 {
        fill: #fff;
      }

      .cls-2 {
        opacity: .4;
      }

      .cls-3 {
        opacity: .2;
      }

      .cls-4 {
        fill: #ffc800;
      }

      .cls-5 {
        fill: #2b454e;
      }

      .cls-6 {
        opacity: .1;
      }

      .cls-7 {
        fill: #375a64;
      }

      .cls-8 {
        fill: #dcdcdc;
      }

      .cls-9 {
        fill: #ececec;
      }

      .cls-10 {
        fill: #1a2e35;
      }
    </style>
  </defs>
  <g id="Layer_1-2" data-name="Layer 1">
    <g>
      <g>
        <path class="cls-9" d="M88.81,493.69c-15.31,.14-38.76,.44-53.9,.45,0,0-.44,0-.44,0v-.45s-.05-22.77-.05-22.77c0,0,0-.5,0-.5h.5s26.95,.06,26.95,.06l26.95,.16h.28s0,.27,0,.27l-.27,22.77h0Zm0,0s-.27-22.77-.27-22.77c0,0,.27,.27,.27,.27l-26.95,.16-26.95,.06,.5-.5s-.05,22.77-.05,22.77c0,0-.45-.45-.45-.45,15.02,.04,38.7,.28,53.9,.45h0Z"/>
        <path class="cls-9" d="M58.74,522.41c-15.31,.14-38.76,.44-53.9,.45,0,0-.44,0-.44,0,0,0,0-.45,0-.45l-.05-22.77s0-.5,0-.5h.5s26.95,.06,26.95,.06l26.95,.16h.28s0,.27,0,.27c0,0-.27,22.77-.27,22.77h0Zm0,0s-.27-22.77-.27-22.77c0,0,.27,.27,.27,.27l-26.95,.16-26.95,.06s.5-.5,.5-.5c0,0-.05,22.77-.05,22.77,0,0-.45-.45-.45-.45,15.02,.04,38.7,.28,53.9,.45h0Z"/>
        <path class="cls-9" d="M58.74,29.6c-15.31,.14-38.76,.44-53.9,.45,0,0-.44,0-.44,0v-.45s-.05-22.77-.05-22.77c0,0,0-.5,0-.5,0,0,.5,0,.5,0l26.95,.06,26.95,.16s.28,0,.28,0v.27s-.28,22.77-.28,22.77h0Zm0,0l-.27-22.77s.27,.27,.27,.27c0,0-26.95,.16-26.95,.16l-26.95,.06,.5-.5-.05,22.77-.45-.45c15.02,.04,38.7,.28,53.9,.45h0Z"/>
        <path class="cls-9" d="M740.15,29.6c-15.31,.14-38.76,.44-53.9,.45,0,0-.44,0-.44,0v-.45s-.05-22.77-.05-22.77v-.5s.5,0,.5,0l26.95,.06,26.95,.16h.28s0,.27,0,.27l-.27,22.77h0Zm0,0s-.27-22.77-.27-22.77l.27,.27-26.95,.16-26.95,.06s.5-.5,.5-.5l-.05,22.77-.45-.45c15.02,.04,38.7,.28,53.9,.45h0Z"/>
        <path class="cls-9" d="M710.09,58.32c-15.31,.14-38.76,.44-53.9,.45,0,0-.44,0-.44,0,0,0,0-.45,0-.45,0,0-.05-22.77-.05-22.77v-.5s.5,0,.5,0l26.95,.06,26.95,.16h.28s0,.27,0,.27l-.27,22.77h0Zm0,0l-.27-22.77s.27,.27,.27,.27c0,0-26.95,.16-26.95,.16l-26.95,.06,.5-.5-.05,22.77s-.45-.45-.45-.45c15.02,.04,38.7,.28,53.9,.45h0Z"/>
        <path class="cls-9" d="M572.05,324.76c-15.31,.14-38.76,.44-53.9,.45,0,0-.44,0-.44,0,0,0,0-.45,0-.45l-.05-22.77s0-.5,0-.5h.5s26.95,.06,26.95,.06c0,0,26.95,.16,26.95,.16,0,0,.28,0,.28,0,0,0,0,.27,0,.27l-.27,22.77h0Zm0,0l-.27-22.77,.27,.27-26.95,.16-26.95,.06s.5-.5,.5-.5l-.05,22.77-.45-.45c15.02,.04,38.7,.28,53.9,.45h0Z"/>
        <path class="cls-9" d="M541.99,353.48c-15.31,.14-38.76,.44-53.9,.45,0,0-.44,0-.44,0v-.45s-.05-22.77-.05-22.77c0,0,0-.5,0-.5h.5s26.95,.06,26.95,.06l26.95,.16h.28s0,.27,0,.27c0,0-.27,22.77-.27,22.77h0Zm0,0l-.27-22.77,.27,.27-26.95,.16-26.95,.06s.5-.5,.5-.5l-.05,22.77-.45-.45c15.02,.04,38.7,.28,53.9,.45h0Z"/>
        <path class="cls-9" d="M512.04,324.76c-15.31,.14-38.76,.44-53.9,.45,0,0-.44,0-.44,0,0,0,0-.45,0-.45,0,0-.05-22.77-.05-22.77,0,0,0-.5,0-.5h.5s26.95,.06,26.95,.06l26.95,.16h.28s0,.27,0,.27l-.27,22.77h0Zm0,0l-.27-22.77,.27,.27-26.95,.16s-26.95,.06-26.95,.06l.5-.5-.05,22.77-.45-.45c15.02,.04,38.7,.28,53.9,.45h0Z"/>
        <path class="cls-9" d="M740.15,522.41c-15.31,.14-38.76,.44-53.9,.45,0,0-.44,0-.44,0v-.45s-.05-22.77-.05-22.77c0,0,0-.5,0-.5h.5s26.95,.06,26.95,.06l26.95,.16h.28s0,.27,0,.27l-.27,22.77h0Zm0,0s-.27-22.77-.27-22.77c0,0,.27,.27,.27,.27l-26.95,.16-26.95,.06s.5-.5,.5-.5l-.05,22.77-.45-.45c15.02,.04,38.7,.28,53.9,.45h0Z"/>
        <path class="cls-9" d="M282.23,97.33c-15.31,.14-38.76,.44-53.9,.45,0,0-.44,0-.44,0,0,0,0-.45,0-.45,0,0-.05-22.77-.05-22.77,0,0,0-.5,0-.5,0,0,.5,0,.5,0l26.95,.06,26.95,.16h.28s0,.27,0,.27l-.27,22.77h0Zm0,0l-.27-22.77s.27,.27,.27,.27l-26.95,.16-26.95,.06,.5-.5-.05,22.77-.45-.45c15.02,.04,38.7,.28,53.9,.45h0Z"/>
      </g>
      <g>
        <path class="cls-9" d="M684.79,248.2l10.61-17.11-5.24-3.25c-1.54-.95-2.38-2.7-2.22-4.5,.09-1,.12-2,.1-3.01-.04-1.81,.9-3.49,2.5-4.34l5.43-2.91-9.52-17.75-5.43,2.91c-1.59,.85-3.52,.71-5-.32-.83-.58-1.68-1.1-2.56-1.59-1.59-.87-2.58-2.53-2.52-4.34l.2-6.16-20.12-.63-.19,6.18c-.05,1.81-1.17,3.39-2.81,4.17-.45,.21-.89,.43-1.32,.67-.44,.23-.87,.48-1.29,.73-1.55,.93-3.46,.99-5,.04l-5.28-3.27-10.61,17.11,5.25,3.26c1.54,.96,2.37,2.7,2.22,4.51-.09,.99-.12,1.99-.1,3,.04,1.81-.91,3.49-2.5,4.34l-5.43,2.91,9.52,17.75,5.43-2.91c1.59-.85,3.51-.71,5,.32,.82,.57,1.68,1.1,2.55,1.58,1.59,.87,2.58,2.53,2.53,4.34l-.19,6.18,20.12,.63,.19-6.18c.06-1.81,1.16-3.38,2.8-4.15,.45-.21,.89-.44,1.33-.67,.44-.23,.87-.48,1.29-.73,1.55-.94,3.48-.99,5.02-.03l5.24,3.25Zm-17.04-12.71c-8.03,4.3-18.01,1.29-22.32-6.74-4.3-8.03-1.3-18.03,6.73-22.33,8.03-4.3,18.04-1.28,22.34,6.74,4.3,8.03,1.28,18.02-6.75,22.33Z"/>
        <path class="cls-9" d="M104.84,442.07l10.61-17.11-5.24-3.25c-1.54-.95-2.38-2.7-2.22-4.5,.09-1,.12-2,.1-3.01-.04-1.81,.9-3.49,2.5-4.34l5.43-2.91-9.52-17.75-5.43,2.91c-1.59,.85-3.52,.71-5-.32-.83-.58-1.68-1.1-2.56-1.59-1.59-.87-2.58-2.53-2.52-4.34l.2-6.16-20.12-.63-.19,6.18c-.05,1.81-1.17,3.39-2.81,4.17-.45,.21-.89,.43-1.32,.67-.44,.23-.87,.48-1.29,.73-1.55,.93-3.46,.99-5,.04l-5.28-3.27-10.61,17.11,5.25,3.26c1.54,.96,2.37,2.7,2.22,4.51-.09,.99-.12,1.99-.1,3,.04,1.81-.91,3.49-2.5,4.34l-5.43,2.91,9.52,17.75,5.43-2.91c1.59-.85,3.51-.71,5,.32,.82,.57,1.68,1.1,2.55,1.58,1.59,.87,2.58,2.53,2.53,4.34l-.19,6.18,20.12,.63,.19-6.18c.06-1.81,1.16-3.38,2.8-4.15,.45-.21,.89-.44,1.33-.67,.44-.23,.87-.48,1.29-.73,1.55-.94,3.48-.99,5.02-.03l5.24,3.25Zm-17.04-12.71c-8.03,4.3-18.01,1.29-22.32-6.74-4.3-8.03-1.3-18.03,6.73-22.33,8.03-4.3,18.04-1.28,22.34,6.74,4.3,8.03,1.28,18.02-6.75,22.33Z"/>
        <path class="cls-9" d="M310.97,114.38l-7.05-12.22-3.74,2.16c-1.1,.64-2.45,.57-3.52-.12-.59-.38-1.2-.74-1.83-1.06-1.13-.57-1.85-1.71-1.85-2.98v-4.32h-14.11v4.32c0,1.27-.73,2.41-1.85,2.98-.63,.32-1.24,.67-1.83,1.06-1.06,.69-2.42,.75-3.52,.12l-3.74-2.16-7.05,12.22,3.76,2.16c1.1,.63,1.71,1.84,1.64,3.11-.02,.34-.03,.69-.03,1.04s0,.69,.03,1.04c.06,1.26-.54,2.47-1.63,3.1l-3.77,2.18,7.05,12.22,3.75-2.16c1.1-.63,2.45-.57,3.52,.12,.59,.38,1.19,.73,1.82,1.05,1.13,.57,1.85,1.71,1.85,2.98v4.32h14.11v-4.32c0-1.27,.72-2.4,1.85-2.98,.63-.32,1.23-.67,1.82-1.05,1.06-.69,2.42-.76,3.52-.12l3.75,2.16,7.05-12.22-3.75-2.16c-1.1-.63-1.7-1.84-1.64-3.1,.02-.35,.03-.69,.03-1.05s0-.69-.03-1.04c-.07-1.27,.54-2.48,1.64-3.11l3.75-2.16Zm-13.49,6.31c0,6.38-5.17,11.55-11.55,11.55s-11.56-5.17-11.56-11.55,5.18-11.56,11.56-11.56,11.55,5.18,11.55,11.56Z"/>
      </g>
      <g>
        <g>
          <path class="cls-10" d="M81.96,469.7c-23.56,23.06-27.51,58.75-22.55,90,.13,.71,1.23,.52,1.23-.15,0-7.12-.21-14.17-.19-21.19,.13-.32,.24-.62,.37-.95,6.15-4.47,11.8-9.52,15.31-16.44,3.93-7.74,5.48-16.47,8.49-24.55,.28-.77-.55-.55-1.09-.15-14.33,10.57-18.9,21.94-23.01,37.14,.19-7.89,.8-15.78,2.49-23.67,3.1-14.42,9.22-28.72,19.58-39.42,.39-.41-.22-1.03-.62-.62Z"/>
          <g>
            <path class="cls-4" d="M86.38,472.39c4.05,.14,6.59,6.61,9.75,8.51,1.67,1.01,3.3,.94,4.47-.7,3.13-4.37-1.16-9.76-5.2-12.77,2.89,1.19,5.28,3.27,8.4,3.87,1.89,.35,3.35-.35,3.79-2.27,1.37-5.96-6.1-8.61-11.22-8.73,2.48-1.73,9.61-6.42,5.82-8.73-3.83-2.32-12.19,4.4-14.92,6.61-4.01,3.25-8.78,8.11-8.96,13.19-.23,5.94,4.95,2.28,8.07,1.04Z"/>
            <path class="cls-6" d="M86.38,472.39c4.05,.14,6.59,6.61,9.75,8.51,1.67,1.01,3.3,.94,4.47-.7,3.13-4.37-1.16-9.76-5.2-12.77,2.89,1.19,5.28,3.27,8.4,3.87,1.89,.35,3.35-.35,3.79-2.27,1.37-5.96-6.1-8.61-11.22-8.73,2.48-1.73,9.61-6.42,5.82-8.73-3.83-2.32-12.19,4.4-14.92,6.61-4.01,3.25-8.78,8.11-8.96,13.19-.23,5.94,4.95,2.28,8.07,1.04Z"/>
            <path class="cls-4" d="M85.21,473.39c5.18-2.36,15.14,1.03,15.98-.93,1.72-3.99-6.24-6.73-10.53-7.26,3.95-1.07,11.53-2.78,11.3-6.59-.28-4.66-11.62-.65-17.36,3.75-7.23,5.54-7.18,10.89-5.99,11.96,1.64,1.47,5.74-.54,6.6-.93Z"/>
          </g>
        </g>
        <g>
          <path class="cls-10" d="M28.3,467.42c24.42,22.15,29.73,57.66,25.96,89.08-.1,.71-1.2,.56-1.23-.1-.27-7.11-.32-14.16-.61-21.19-.14-.32-.26-.61-.4-.93-6.31-4.23-12.15-9.07-15.92-15.85-4.23-7.58-6.1-16.25-9.42-24.21-.31-.76,.52-.57,1.08-.19,14.72,10.02,19.72,21.21,24.41,36.24-.49-7.88-1.39-15.74-3.39-23.55-3.64-14.3-10.31-28.35-21.07-38.65-.4-.39,.18-1.04,.6-.65Z"/>
          <g>
            <path class="cls-4" d="M23.98,470.28c-4.04,.29-6.34,6.86-9.42,8.87-1.63,1.07-3.26,1.07-4.5-.53-3.29-4.25,.79-9.8,4.71-12.96-2.84,1.3-5.16,3.47-8.24,4.18-1.87,.42-3.36-.23-3.88-2.12-1.6-5.9,5.77-8.83,10.88-9.15-2.55-1.63-9.84-6.05-6.15-8.5,3.74-2.46,12.35,3.93,15.16,6.04,4.13,3.1,9.09,7.77,9.46,12.84,.46,5.92-4.86,2.47-8.03,1.34Z"/>
            <path class="cls-6" d="M23.98,470.28c-4.04,.29-6.34,6.86-9.42,8.87-1.63,1.07-3.26,1.07-4.5-.53-3.29-4.25,.79-9.8,4.71-12.96-2.84,1.3-5.16,3.47-8.24,4.18-1.87,.42-3.36-.23-3.88-2.12-1.6-5.9,5.77-8.83,10.88-9.15-2.55-1.63-9.84-6.05-6.15-8.5,3.74-2.46,12.35,3.93,15.16,6.04,4.13,3.1,9.09,7.77,9.46,12.84,.46,5.92-4.86,2.47-8.03,1.34Z"/>
            <path class="cls-4" d="M25.19,471.23c-5.27-2.16-15.09,1.61-16.01-.32-1.87-3.92,5.98-6.96,10.25-7.66-3.99-.92-11.63-2.34-11.54-6.16,.11-4.66,11.59-1.09,17.49,3.08,7.44,5.26,7.59,10.61,6.44,11.73-1.58,1.53-5.76-.32-6.63-.68Z"/>
          </g>
        </g>
        <g>
          <path class="cls-10" d="M53.27,525.93c1.8,11.67,4.04,23.75,7.58,35.03,.34,1.03,1.86,.76,1.71-.34-1.6-10.79-4.53-21.39-6.13-32.18-1.63-10.92-2.5-21.99-1.88-33.04,1.03-18.19,5.97-37.54,17.84-51.77,.26-.34-.29-.81-.56-.5-23.76,27.71-19.98,61.68-19.96,64.72-3.36-11.47-6.83-24.62-19.56-36.3-.55-.5-.98-.26-.89,.59,2.28,21.27,8.19,32.38,20.52,43.76,.35,3.37,.78,6.73,1.32,10.04Z"/>
          <g>
            <path class="cls-4" d="M72.61,446.8c4.27-1.9,10.17,3.54,14.4,3.92,2.24,.2,3.9-.68,4.29-2.98,1.05-6.11-6.12-9.54-11.83-10.63,3.59-.22,7.13,.74,10.66-.22,2.13-.59,3.3-2.05,2.79-4.26-1.58-6.87-10.66-5.86-16.04-3.41,1.71-3.04,6.73-11.5,1.65-11.99-5.14-.48-10.44,10.7-12.15,14.36-2.52,5.39-5.03,12.83-2.66,18.2,2.74,6.28,6.29-.12,8.9-2.99Z"/>
            <path class="cls-6" d="M72.61,446.8c4.27-1.9,10.17,3.54,14.4,3.92,2.24,.2,3.9-.68,4.29-2.98,1.05-6.11-6.12-9.54-11.83-10.63,3.59-.22,7.13,.74,10.66-.22,2.13-.59,3.3-2.05,2.79-4.26-1.58-6.87-10.66-5.86-16.04-3.41,1.71-3.04,6.73-11.5,1.65-11.99-5.14-.48-10.44,10.7-12.15,14.36-2.52,5.39-5.03,12.83-2.66,18.2,2.74,6.28,6.29-.12,8.9-2.99Z"/>
            <path class="cls-4" d="M71.89,448.43c4.19-5.05,16.23-6.55,16.12-9.01-.23-5.01-9.86-3.84-14.58-2.23,3.56-3.1,10.57-8.69,8.41-12.53-2.64-4.69-12.39,5.17-16.13,12.63-4.71,9.39-1.97,14.92-.19,15.43,2.44,.7,5.68-3.45,6.38-4.29Z"/>
          </g>
        </g>
        <path class="cls-4" d="M37.64,532.33l-10.48,80.07h63.77c-1.31-7.09-13.18-80.16-13.18-80.16l-40.11,.09Z"/>
      </g>
      <polygon class="cls-10" points="0 612.67 93.12 612.23 186.25 612.07 372.5 611.77 558.75 612.07 651.87 612.23 745 612.67 651.87 613.11 558.75 613.27 372.5 613.57 186.25 613.27 93.12 613.11 0 612.67"/>
      <ellipse class="cls-9" cx="372.5" cy="731.47" rx="268.72" ry="37.99"/>
      <g>
        <g>
          <path class="cls-10" d="M205.88,332.39l-11.19-44.04-88.4,22.47-11.68-45.97L165.24,103.84l35.04-8.91,34.07,134.05,28.29-7.19,11.77,46.29-28.29,7.19,11.19,44.04-51.43,13.07Zm-60.57-80.77l43.72-11.11-14.46-56.9-29.26,68.01Z"/>
          <path class="cls-10" d="M459.07,185.37c0,14.59-2.21,28.03-6.63,40.3-4.43,12.27-10.51,22.89-18.25,31.84-7.74,8.96-16.86,15.92-27.36,20.9-10.51,4.98-21.95,7.46-34.33,7.46s-23.88-2.49-34.5-7.46c-10.61-4.98-19.79-11.94-27.53-20.9-7.74-8.96-13.77-19.57-18.08-31.84-4.31-12.27-6.47-25.71-6.47-40.3s2.16-28.03,6.47-40.3c4.31-12.27,10.33-22.89,18.08-31.84,7.74-8.96,16.92-15.97,27.53-21.06,10.61-5.08,22.11-7.63,34.5-7.63s23.82,2.54,34.33,7.63c10.5,5.09,19.62,12.11,27.36,21.06,7.74,8.96,13.82,19.57,18.25,31.84,4.42,12.27,6.63,25.71,6.63,40.3Zm-53.4,0c0-15.48-3.1-28.03-9.29-37.65-6.19-9.62-14.15-14.43-23.88-14.43s-18.3,4.81-24.38,14.43c-6.08,9.62-9.12,22.17-9.12,37.65s3.04,27.98,9.12,37.48c6.08,9.51,14.21,14.26,24.38,14.26s17.69-4.75,23.88-14.26c6.19-9.5,9.29-22,9.29-37.48Z"/>
          <path class="cls-10" d="M554.3,323.9l7.27-44.86-90.04-14.59,7.59-46.82,128.91-119.57,35.69,5.78-22.12,136.53,28.81,4.67-7.64,47.15-28.81-4.67-7.27,44.86-52.39-8.49Zm-23.4-98.21l44.53,7.21,9.39-57.95-53.92,50.74Z"/>
        </g>
        <g>
          <path class="cls-10" d="M298,52.58c-3.79,0-7.22-.74-10.31-2.22-3.08-1.48-5.73-3.45-7.94-5.9-2.21-2.45-3.92-5.26-5.13-8.41-1.21-3.16-1.82-6.38-1.82-9.69s.64-6.75,1.93-9.9c1.29-3.16,3.06-5.95,5.32-8.37,2.26-2.43,4.94-4.36,8.05-5.79,3.11-1.43,6.48-2.15,10.12-2.15s7.15,.76,10.23,2.29c3.08,1.53,5.72,3.53,7.9,6.01,2.18,2.48,3.88,5.29,5.1,8.45,1.21,3.16,1.82,6.36,1.82,9.61,0,3.45-.63,6.74-1.89,9.87-1.26,3.13-3.01,5.9-5.24,8.3-2.23,2.4-4.9,4.32-8.01,5.75-3.11,1.43-6.48,2.15-10.12,2.15Zm-15-26.22c0,2.23,.34,4.4,1.02,6.48,.68,2.09,1.66,3.93,2.95,5.54,1.29,1.6,2.86,2.89,4.73,3.86,1.87,.97,3.99,1.46,6.37,1.46s4.58-.5,6.44-1.49c1.87-.99,3.45-2.32,4.73-3.97,1.29-1.65,2.26-3.51,2.91-5.57,.66-2.06,.98-4.16,.98-6.3s-.35-4.39-1.06-6.48c-.7-2.09-1.7-3.93-2.99-5.54-1.29-1.6-2.86-2.88-4.73-3.82-1.87-.95-3.97-1.42-6.3-1.42s-4.59,.5-6.48,1.49c-1.89,1-3.47,2.31-4.73,3.93-1.26,1.63-2.22,3.47-2.88,5.54-.66,2.06-.98,4.16-.98,6.3Z"/>
          <path class="cls-10" d="M347.67,52.94c-3.11,0-5.9-.53-8.37-1.6-2.48-1.07-4.58-2.51-6.3-4.33-1.72-1.82-3.05-3.92-3.97-6.3-.92-2.38-1.38-4.88-1.38-7.5s.46-5.19,1.38-7.57c.92-2.38,2.25-4.48,3.97-6.3,1.72-1.82,3.82-3.26,6.3-4.33,2.48-1.07,5.27-1.6,8.37-1.6s5.89,.54,8.34,1.6c2.45,1.07,4.54,2.51,6.26,4.33,1.72,1.82,3.05,3.92,3.97,6.3,.92,2.38,1.38,4.9,1.38,7.57s-.46,5.12-1.38,7.5c-.92,2.38-2.23,4.48-3.93,6.3-1.7,1.82-3.79,3.27-6.26,4.33-2.48,1.07-5.27,1.6-8.37,1.6Zm-9.98-19.74c0,1.7,.26,3.24,.76,4.62,.51,1.38,1.21,2.59,2.11,3.61,.9,1.02,1.95,1.81,3.17,2.37,1.21,.56,2.52,.84,3.93,.84s2.72-.28,3.93-.84c1.21-.56,2.27-1.35,3.17-2.37,.9-1.02,1.6-2.23,2.11-3.64,.51-1.41,.77-2.96,.77-4.66s-.26-3.18-.77-4.59c-.51-1.41-1.21-2.62-2.11-3.64-.9-1.02-1.96-1.81-3.17-2.37-1.21-.56-2.52-.84-3.93-.84s-2.72,.29-3.93,.87c-1.21,.58-2.27,1.38-3.17,2.4-.9,1.02-1.6,2.23-2.11,3.64-.51,1.41-.76,2.94-.76,4.59Z"/>
          <path class="cls-10" d="M397.04,52.94c-3.01,0-5.63-.67-7.86-2-2.23-1.33-3.98-3.14-5.24-5.43v22.21h-9.76V14.06h8.52v6.55c1.41-2.23,3.23-3.99,5.46-5.28,2.23-1.29,4.81-1.93,7.72-1.93,2.57,0,4.95,.52,7.14,1.57s4.07,2.45,5.64,4.22c1.58,1.77,2.82,3.86,3.71,6.26,.9,2.4,1.35,4.94,1.35,7.61s-.41,5.37-1.24,7.79c-.83,2.43-1.98,4.54-3.46,6.34-1.48,1.8-3.24,3.2-5.28,4.22-2.04,1.02-4.27,1.53-6.7,1.53Zm-3.28-8.3c1.46,0,2.8-.32,4.04-.95,1.24-.63,2.29-1.48,3.17-2.55,.87-1.07,1.55-2.31,2.04-3.71,.49-1.41,.73-2.86,.73-4.37,0-1.6-.27-3.1-.8-4.48-.54-1.38-1.27-2.59-2.22-3.61-.95-1.02-2.06-1.82-3.35-2.4-1.29-.58-2.68-.87-4.19-.87-.92,0-1.87,.16-2.84,.47-.97,.32-1.87,.76-2.7,1.35-.83,.58-1.56,1.26-2.22,2.04-.65,.78-1.15,1.63-1.49,2.55v8.96c.87,2.18,2.21,3.99,4.01,5.43,1.8,1.43,3.74,2.15,5.83,2.15Z"/>
          <path class="cls-10" d="M434.77,52.94c-3.2,0-6.34-.51-9.39-1.53-3.06-1.02-5.68-2.48-7.87-4.37l3.64-6.12c2.33,1.65,4.6,2.9,6.81,3.75,2.21,.85,4.41,1.27,6.59,1.27,1.94,0,3.47-.36,4.59-1.09,1.12-.73,1.67-1.77,1.67-3.13s-.65-2.35-1.97-2.99c-1.31-.63-3.45-1.36-6.41-2.18-2.48-.68-4.59-1.34-6.34-1.97-1.75-.63-3.16-1.35-4.22-2.15-1.07-.8-1.85-1.72-2.33-2.77s-.73-2.29-.73-3.75c0-1.94,.37-3.69,1.13-5.24,.75-1.55,1.81-2.88,3.17-3.97,1.36-1.09,2.95-1.93,4.77-2.51,1.82-.58,3.8-.87,5.93-.87,2.86,0,5.55,.41,8.05,1.24,2.5,.83,4.79,2.16,6.88,4.01l-3.93,5.9c-1.94-1.46-3.82-2.52-5.64-3.2-1.82-.68-3.63-1.02-5.42-1.02-1.65,0-3.04,.34-4.15,1.02-1.12,.68-1.68,1.77-1.68,3.28,0,.68,.13,1.24,.4,1.68,.27,.44,.69,.83,1.27,1.16,.58,.34,1.35,.67,2.29,.98,.95,.32,2.12,.64,3.53,.98,2.62,.68,4.87,1.36,6.74,2.04,1.87,.68,3.4,1.46,4.59,2.33,1.19,.87,2.06,1.88,2.62,3.02,.56,1.14,.84,2.51,.84,4.12,0,3.74-1.38,6.69-4.15,8.85-2.77,2.16-6.53,3.24-11.29,3.24Z"/>
          <path class="cls-10" d="M458.43,32.77V0h9.76V32.77h-9.76Zm0,19.44v-11h9.76v11h-9.76Z"/>
        </g>
      </g>
      <g>
        <g>
          <rect class="cls-5" x="345.62" y="487.74" width="64.02" height="5.24"/>
          <rect class="cls-5" x="345.62" y="494.57" width="64.02" height="5.24"/>
          <rect class="cls-5" x="345.62" y="501.4" width="64.02" height="5.24"/>
          <rect class="cls-5" x="345.62" y="508.24" width="64.02" height="5.24"/>
          <rect class="cls-5" x="345.62" y="515.07" width="64.02" height="5.24"/>
        </g>
        <g>
          <rect class="cls-5" x="315.64" y="651.34" width="121.72" height="5.24"/>
          <rect class="cls-5" x="315.64" y="658.17" width="121.72" height="5.24"/>
          <rect class="cls-5" x="315.64" y="665" width="121.72" height="5.24"/>
          <rect class="cls-5" x="315.64" y="671.83" width="121.72" height="5.24"/>
          <rect class="cls-5" x="315.64" y="678.67" width="121.72" height="5.24"/>
        </g>
        <g>
          <g>
            <path class="cls-4" d="M262.23,444.39c.06-.71-26.64-9.65-26.64-9.65l1.58-91.74,35.4-7.6-10.34,108.99Z"/>
            <path class="cls-3" d="M262.23,444.39c.06-.71-26.64-9.65-26.64-9.65l1.58-91.74,35.4-7.6-10.34,108.99Z"/>
          </g>
          <g>
            <path class="cls-4" d="M506.79,480.4c.19-.69,28.34,.1,28.34,.1l30.09-86.68-30.63-19.32-27.8,105.89Z"/>
            <path class="cls-3" d="M506.79,480.4c.19-.69,28.34,.1,28.34,.1l30.09-86.68-30.63-19.32-27.8,105.89Z"/>
          </g>
          <path class="cls-4" d="M257.09,478.17s9.9-148.36,18.58-197.17c0,0,179.23,13.55,275.98,50.54,0,0-49.88,173.3-52.46,181.9,0,0-126.21-24.86-242.1-35.26Z"/>
          <g>
            <path class="cls-6" d="M417.07,300.81c-2.91,17.86-5.86,35.72-8.91,53.56l-9.24,53.5-.5-.76,60.05,14.27,29.99,7.27,29.96,7.41-30.12-6.74-30.08-6.88-60.11-14.04-.61-.14,.11-.61,9.56-53.45c3.21-17.81,6.53-35.6,9.89-53.39Z"/>
            <path class="cls-6" d="M410.48,310.99c.03,1.64-1.27,3.32-3.15,3.48-.91,.09-1.9-.2-2.64-.85-.74-.64-1.18-1.63-1.19-2.64,0-1,.44-1.99,1.18-2.64,.74-.65,1.73-.93,2.64-.85,1.88,.16,3.18,1.85,3.15,3.49Zm0,0c0-.83-.37-1.64-.99-2.16-.62-.52-1.42-.73-2.16-.65-1.51,.17-2.49,1.53-2.47,2.81-.02,1.27,.96,2.64,2.47,2.81,.73,.08,1.54-.13,2.16-.65,.62-.52,.98-1.33,.99-2.16Z"/>
            <path class="cls-6" d="M407.33,333.07c.03,1.64-1.27,3.32-3.15,3.48-.91,.09-1.9-.2-2.64-.85-.74-.64-1.18-1.63-1.19-2.64,0-1,.44-1.99,1.18-2.64,.74-.65,1.73-.93,2.64-.85,1.88,.16,3.18,1.85,3.15,3.49Zm0,0c0-.83-.37-1.64-.99-2.16-.62-.52-1.42-.73-2.16-.65-1.51,.17-2.49,1.53-2.47,2.81-.02,1.27,.96,2.64,2.47,2.81,.73,.08,1.54-.13,2.16-.65,.62-.52,.98-1.33,.99-2.16Z"/>
            <path class="cls-6" d="M403.46,356.4c.03,1.64-1.27,3.32-3.15,3.48-.91,.09-1.9-.2-2.64-.85-.74-.64-1.18-1.63-1.19-2.64,0-1,.44-1.99,1.18-2.64,.74-.65,1.73-.93,2.64-.85,1.88,.16,3.18,1.85,3.15,3.49Zm0,0c0-.83-.37-1.64-.99-2.16-.62-.52-1.42-.73-2.16-.65-1.51,.17-2.49,1.53-2.47,2.81-.02,1.27,.96,2.64,2.47,2.81,.73,.08,1.54-.13,2.16-.65,.62-.52,.98-1.33,.99-2.16Z"/>
            <path class="cls-6" d="M399.58,379.72c.03,1.64-1.27,3.32-3.15,3.48-.91,.09-1.9-.2-2.64-.85-.74-.64-1.18-1.63-1.19-2.64,0-1,.44-1.99,1.18-2.64,.74-.65,1.73-.93,2.64-.85,1.88,.16,3.18,1.85,3.15,3.49Zm0,0c0-.83-.37-1.64-.99-2.16-.62-.52-1.42-.73-2.16-.65-1.51,.17-2.49,1.53-2.47,2.81-.02,1.27,.96,2.64,2.47,2.81,.73,.08,1.54-.13,2.16-.65,.62-.52,.98-1.33,.99-2.16Z"/>
            <path class="cls-6" d="M412.79,416.92c.03,1.64-1.27,3.32-3.15,3.48-.91,.09-1.9-.2-2.64-.85-.74-.64-1.18-1.63-1.19-2.64,0-1,.44-1.99,1.18-2.64,.74-.65,1.73-.93,2.64-.85,1.88,.16,3.18,1.85,3.15,3.49Zm0,0c0-.83-.37-1.64-.99-2.16-.62-.52-1.42-.73-2.16-.65-1.51,.17-2.49,1.53-2.47,2.81-.02,1.27,.96,2.64,2.47,2.81,.73,.08,1.54-.13,2.16-.65,.62-.52,.98-1.33,.99-2.16Z"/>
            <path class="cls-6" d="M434.8,422.29c.03,1.64-1.27,3.32-3.15,3.48-.91,.09-1.9-.2-2.64-.85-.74-.64-1.18-1.63-1.19-2.64,0-1,.44-1.99,1.18-2.64,.74-.65,1.73-.93,2.64-.85,1.88,.16,3.18,1.85,3.15,3.49Zm0,0c0-.83-.37-1.64-.99-2.16-.62-.52-1.42-.73-2.16-.65-1.51,.17-2.49,1.53-2.47,2.81-.02,1.27,.96,2.64,2.47,2.81,.73,.08,1.54-.13,2.16-.65,.62-.52,.98-1.33,.99-2.16Z"/>
            <path class="cls-6" d="M456.82,427.66c.03,1.64-1.27,3.32-3.15,3.48-.91,.09-1.9-.2-2.64-.85-.74-.64-1.18-1.63-1.19-2.64,0-1,.44-1.99,1.18-2.64,.74-.65,1.73-.93,2.64-.85,1.88,.16,3.18,1.85,3.15,3.49Zm0,0c0-.83-.37-1.64-.99-2.16-.62-.52-1.42-.73-2.16-.65-1.51,.17-2.49,1.53-2.47,2.81-.02,1.27,.96,2.64,2.47,2.81,.73,.08,1.54-.13,2.16-.65,.62-.52,.98-1.33,.99-2.16Z"/>
            <path class="cls-6" d="M478.84,433.03c.03,1.64-1.27,3.32-3.15,3.48-.91,.09-1.9-.2-2.64-.85-.74-.64-1.18-1.63-1.19-2.64,0-1,.44-1.99,1.18-2.64,.74-.65,1.73-.93,2.64-.85,1.88,.16,3.18,1.85,3.15,3.49Zm0,0c0-.83-.37-1.64-.99-2.16-.62-.52-1.42-.73-2.16-.65-1.51,.17-2.49,1.53-2.47,2.81-.02,1.27,.96,2.64,2.47,2.81,.73,.08,1.54-.13,2.16-.65,.62-.52,.98-1.33,.99-2.16Z"/>
            <path class="cls-6" d="M500.85,438.65c-.09,1.64-1.52,3.21-3.41,3.23-.91,.02-1.88-.35-2.56-1.05-.69-.7-1.05-1.72-.98-2.72,.08-1,.6-1.95,1.38-2.54,.79-.59,1.8-.8,2.7-.64,1.86,.31,3.03,2.09,2.87,3.72Zm0,0c.06-.82-.25-1.66-.82-2.23-.57-.57-1.36-.84-2.1-.81-1.52,.06-2.6,1.34-2.68,2.61-.12,1.27,.75,2.7,2.25,2.99,.73,.14,1.55,0,2.2-.48,.65-.47,1.08-1.25,1.15-2.08Z"/>
            <path class="cls-6" d="M395.7,403.05c.03,1.64-1.27,3.32-3.15,3.48-.91,.09-1.9-.2-2.64-.85-.74-.64-1.18-1.63-1.19-2.64,0-1,.44-1.99,1.18-2.64,.74-.65,1.73-.93,2.64-.85,1.88,.16,3.18,1.85,3.15,3.49Zm0,0c0-.83-.37-1.64-.99-2.16-.62-.52-1.42-.73-2.16-.65-1.51,.17-2.49,1.53-2.47,2.81-.02,1.27,.96,2.64,2.47,2.81,.73,.08,1.54-.13,2.16-.65,.62-.52,.98-1.33,.99-2.16Z"/>
          </g>
          <g>
            <g>
              <circle class="cls-3" cx="324.61" cy="403.85" r="50.89" transform="translate(-190.49 347.82) rotate(-45)"/>
              <circle class="cls-10" cx="324.61" cy="403.85" r="40.82" transform="translate(-168 564.46) rotate(-69.27)"/>
              <g>
                <rect class="cls-4" x="311.76" y="388.03" width="9.67" height="9.67" transform="translate(66.9 -45.57) rotate(9.2)"/>
                <rect class="cls-4" x="303.76" y="376.95" width="9.67" height="9.67" transform="translate(65.03 -44.44) rotate(9.2)"/>
                <rect class="cls-4" x="341.93" y="383.13" width="9.67" height="9.67" transform="translate(66.51 -50.46) rotate(9.2)"/>
                <rect class="cls-4" x="297.62" y="414.9" width="9.67" height="9.67" transform="translate(71.02 -42.97) rotate(9.2)"/>
                <rect class="cls-4" x="335.78" y="421.08" width="9.67" height="9.67" transform="translate(72.5 -48.99) rotate(9.2)"/>
                <rect class="cls-4" x="308.7" y="406.9" width="9.67" height="9.67" transform="translate(69.88 -44.84) rotate(9.2)"/>
                <rect class="cls-4" x="319.77" y="399.01" width="9.67" height="9.67" transform="translate(68.76 -46.71) rotate(9.2)"/>
                <rect class="cls-4" x="330.84" y="391.13" width="9.67" height="9.67" transform="translate(67.64 -48.59) rotate(9.2)"/>
                <rect class="cls-4" x="327.79" y="409.99" width="9.67" height="9.67" transform="translate(70.63 -47.86) rotate(9.2)"/>
              </g>
            </g>
            <g>
              <g>
                <circle class="cls-4" cx="461.18" cy="425.18" r="50.89" transform="translate(-159.99 512.41) rotate(-50.67)"/>
                <circle class="cls-3" cx="461.18" cy="425.18" r="50.89" transform="translate(-159.99 512.41) rotate(-50.67)"/>
                <path class="cls-3" d="M510.7,436.95c-.23,1-.5,1.97-.8,2.94l-99.2-21.16c.23-1.77,.55-3.54,.97-5.33,6.5-27.34,33.94-44.24,61.29-37.74,27.34,6.5,44.24,33.94,37.74,61.29Z"/>
              </g>
              <circle class="cls-10" cx="461.18" cy="425.18" r="40.82" transform="translate(-128.26 210.66) rotate(-22.68)"/>
              <rect class="cls-4" x="456.35" y="401.12" width="9.67" height="48.11" transform="translate(110.81 -95.11) rotate(13.37)"/>
              <g>
                <path class="cls-4" d="M513.65,436l-104.2-24.76c6.84-28.77,35.71-46.54,64.48-39.71,28.77,6.84,46.56,35.7,39.72,64.47Z"/>
                <path class="cls-3" d="M513.65,436l-104.2-24.76c6.84-28.77,35.71-46.54,64.48-39.71,28.77,6.84,46.56,35.7,39.72,64.47Z"/>
              </g>
            </g>
            <path class="cls-6" d="M372.63,455.43c.26-4.07,1.76-8.2,4.71-11.46,1.45-1.64,3.4-2.94,5.53-3.72,2.15-.79,4.47-.93,6.67-.74,2.24,.26,4.53,1.05,6.4,2.46,1.83,1.44,3.24,3.32,4.06,5.35,1.7,4.04,1.89,8.35,1.06,12.35-.68-4-1.71-7.88-3.59-11.06-1.86-3.21-4.81-5.21-8.32-5.52-3.58-.45-7.07,.52-9.89,2.89-2.81,2.37-4.96,5.77-6.64,9.45Z"/>
          </g>
          <g>
            <path class="cls-1" d="M271.03,351.62c.42-5.44,1.03-10.85,1.55-16.27,.58-5.42,1.17-10.83,1.83-16.23,.63-5.41,1.33-10.81,2.02-16.21,.68-5.4,1.46-10.79,2.19-16.18l.19-1.44,1.46,.09c11.74,.74,23.46,1.69,35.16,2.89,5.85,.6,11.69,1.28,17.53,2.03,5.83,.84,11.66,1.61,17.45,2.67l-35.19-2.18-35.15-2.27,1.65-1.35c-.8,5.38-1.54,10.78-2.39,16.15-.83,5.38-1.65,10.76-2.55,16.13-.86,5.37-1.79,10.74-2.74,16.1-1.01,5.35-1.92,10.72-3.02,16.06Z"/>
            <path class="cls-1" d="M279.5,392.76c1.18-6.54,4.15-12.77,8.14-18.19,.99-1.36,2.12-2.63,3.21-3.92,1.18-1.21,2.4-2.39,3.61-3.58,1.32-1.07,2.65-2.13,4-3.16,1.44-.91,2.85-1.86,4.32-2.74,1.54-.74,3.07-1.5,4.62-2.2l4.84-1.67,5-1.03c1.68-.25,3.39-.3,5.07-.42,6.79-.17,13.46,1.27,19.59,3.76-6.52-1.22-13.03-1.9-19.43-1.29-6.39,.6-12.6,2.51-18.16,5.64-5.6,3.06-10.56,7.27-14.74,12.17-4.17,4.92-7.62,10.5-10.07,16.66Z"/>
            <path class="cls-1" d="M419.89,406.5c2.07-6.31,5.88-12.07,10.58-16.89,1.17-1.21,2.47-2.31,3.72-3.44,1.33-1.04,2.71-2.04,4.07-3.05,1.45-.88,2.92-1.75,4.4-2.58,1.55-.7,3.08-1.45,4.65-2.11,1.63-.52,3.24-1.06,4.88-1.54l5.02-.99,5.1-.33c1.7-.01,3.4,.17,5.08,.28,6.75,.76,13.16,3.12,18.89,6.43-6.29-2.11-12.64-3.68-19.07-3.96-6.41-.29-12.83,.74-18.76,3.07-5.97,2.25-11.46,5.74-16.28,10.01-4.81,4.3-9,9.34-12.27,15.11Z"/>
          </g>
        </g>
        <g>
          <g>
            <g>
              <path class="cls-4" d="M262.79,569.6c-13.04,0-41.58-2.93-59.95-26.55-23.5-30.21-15.01-88.18-14.63-90.64l10.2,1.55c-.08,.56-8.19,56.05,12.58,82.75,20.31,26.11,57.13,22.36,57.5,22.31l1.16,10.25c-.4,.05-2.93,.31-6.86,.31Z"/>
              <path class="cls-2" d="M262.79,569.6c-13.04,0-41.58-2.93-59.95-26.55-23.5-30.21-15.01-88.18-14.63-90.64l10.2,1.55c-.08,.56-8.19,56.05,12.58,82.75,20.31,26.11,57.13,22.36,57.5,22.31l1.16,10.25c-.4,.05-2.93,.31-6.86,.31Z"/>
            </g>
            <path class="cls-4" d="M201.41,460.99c-1.86,0-3.76-.15-5.7-.47-17.21-2.79-24.83-13.09-28.19-21.23-3.37-8.17-4.15-18.05-2.31-29.36l21.82,3.54c-1.14,7.01-.81,13.19,.93,17.39,1.24,3,3.64,6.6,11.29,7.84,3.49,.57,7.27,.27,11.23-5.7,3.05-4.6,4.89-10.87,5.53-14.84l21.82,3.54c-.51,3.12-2.64,14.05-8.93,23.52-6.84,10.31-16.45,15.77-27.49,15.77Z"/>
            <g>
              <path class="cls-4" d="M284.34,599.13c-.04-.47-18.49-3.42-18.49-3.42l-8.96-60.22,22.35-8.83,5.1,72.47Z"/>
              <path class="cls-3" d="M284.34,599.13c-.04-.47-18.49-3.42-18.49-3.42l-8.96-60.22,22.35-8.83,5.1,72.47Z"/>
            </g>
          </g>
          <g>
            <path class="cls-4" d="M466.78,599.24c.05-.47,18.56-3.01,18.56-3.01l10.28-60.01-22.15-9.32-6.7,72.34Z"/>
            <path class="cls-3" d="M466.78,599.24c.05-.47,18.56-3.01,18.56-3.01l10.28-60.01-22.15-9.32-6.7,72.34Z"/>
          </g>
          <path class="cls-4" d="M276.67,513.18s149.24-6.38,199.66,2.02c0,0-14.8,144.41-15.6,147.21,0,0-148.46-.4-171.67,0,0,0-12.58-96.03-12.39-149.24Z"/>
          <g>
            <path class="cls-3" d="M322,552.75s81.47-3.22,108.99,1.02c0,0-8.08,72.82-8.52,74.23,0,0-81.05-.2-93.71,0,0,0-5.57-49.84-6.76-75.25Z"/>
            <path class="cls-3" d="M333.13,627.97c-1.86,0-3.34,.02-4.38,.04,0,0-5.56-49.85-6.76-75.26,0,0,1.85-.07,5.09-.18l6.05,75.41Z"/>
            <g>
              <path class="cls-4" d="M357.17,570.72c-4.57-1.44-9.43,1.1-10.87,5.66-1.44,4.57,1.1,9.43,5.66,10.87,4.56,1.44,9.42-1.09,10.86-5.66,1.44-4.56-1.09-9.43-5.66-10.87Zm4.65,10.55c-1.26,4.01-5.53,6.24-9.54,4.97-4.01-1.26-6.23-5.53-4.97-9.55,1.26-4.01,5.53-6.23,9.55-4.97,4,1.26,6.23,5.53,4.97,9.54Zm-4.65-10.55c-4.57-1.44-9.43,1.1-10.87,5.66-1.44,4.57,1.1,9.43,5.66,10.87,4.56,1.44,9.42-1.09,10.86-5.66,1.44-4.56-1.09-9.43-5.66-10.87Zm4.65,10.55c-1.26,4.01-5.53,6.24-9.54,4.97-4.01-1.26-6.23-5.53-4.97-9.55,1.26-4.01,5.53-6.23,9.55-4.97,4,1.26,6.23,5.53,4.97,9.54Zm-4.65-10.55c-4.57-1.44-9.43,1.1-10.87,5.66-1.44,4.57,1.1,9.43,5.66,10.87,4.56,1.44,9.42-1.09,10.86-5.66,1.44-4.56-1.09-9.43-5.66-10.87Zm4.65,10.55c-1.26,4.01-5.53,6.24-9.54,4.97-4.01-1.26-6.23-5.53-4.97-9.55,1.26-4.01,5.53-6.23,9.55-4.97,4,1.26,6.23,5.53,4.97,9.54Zm-1.76-19.71c-9.63-3.03-19.88,2.32-22.91,11.93-3.03,9.62,2.31,19.88,11.93,22.91,9.62,3.03,19.88-2.31,22.91-11.93,3.03-9.61-2.31-19.88-11.92-22.91Zm4.05,20.43c-1.66,5.27-7.29,8.2-12.56,6.54-5.26-1.66-8.2-7.29-6.54-12.56,1.66-5.27,7.3-8.2,12.56-6.54,5.26,1.66,8.2,7.29,6.54,12.55Zm-1.29-.4c1.44-4.56-1.09-9.43-5.66-10.87-4.57-1.44-9.43,1.1-10.87,5.66-1.44,4.57,1.1,9.43,5.66,10.87,4.56,1.44,9.42-1.09,10.86-5.66Zm-1-.32c-1.26,4.01-5.53,6.24-9.54,4.97-4.01-1.26-6.23-5.53-4.97-9.55,1.26-4.01,5.53-6.23,9.55-4.97,4,1.26,6.23,5.53,4.97,9.54Zm-4.65-10.55c-4.57-1.44-9.43,1.1-10.87,5.66-1.44,4.57,1.1,9.43,5.66,10.87,4.56,1.44,9.42-1.09,10.86-5.66,1.44-4.56-1.09-9.43-5.66-10.87Zm4.65,10.55c-1.26,4.01-5.53,6.24-9.54,4.97-4.01-1.26-6.23-5.53-4.97-9.55,1.26-4.01,5.53-6.23,9.55-4.97,4,1.26,6.23,5.53,4.97,9.54Zm-4.65-10.55c-4.57-1.44-9.43,1.1-10.87,5.66-1.44,4.57,1.1,9.43,5.66,10.87,4.56,1.44,9.42-1.09,10.86-5.66,1.44-4.56-1.09-9.43-5.66-10.87Zm4.65,10.55c-1.26,4.01-5.53,6.24-9.54,4.97-4.01-1.26-6.23-5.53-4.97-9.55,1.26-4.01,5.53-6.23,9.55-4.97,4,1.26,6.23,5.53,4.97,9.54Z"/>
              <g>
                <polygon class="cls-4" points="352.65 596.74 345.95 594.63 344.83 599.49 350.78 601.36 352.65 596.74"/>
                <polygon class="cls-4" points="340.61 590.46 337.37 584.23 333.14 586.88 336.02 592.42 340.61 590.46"/>
                <polygon class="cls-4" points="336.53 577.52 338.64 570.82 333.79 569.69 331.91 575.65 336.53 577.52"/>
                <polygon class="cls-4" points="342.81 565.48 349.04 562.23 346.4 558 340.86 560.89 342.81 565.48"/>
                <polygon class="cls-4" points="355.76 561.4 362.45 563.51 363.58 558.65 357.62 556.78 355.76 561.4"/>
                <polygon class="cls-4" points="367.79 567.68 371.04 573.9 375.27 571.26 372.38 565.72 367.79 567.68"/>
                <polygon class="cls-4" points="371.87 580.62 369.76 587.32 374.62 588.45 376.5 582.49 371.87 580.62"/>
                <polygon class="cls-4" points="365.6 592.66 359.37 595.91 362.01 600.14 367.55 597.25 365.6 592.66"/>
              </g>
            </g>
            <g>
              <path class="cls-8" d="M386.62,596.21c-2.7-1.76-6.32-.99-8.07,1.7-1.76,2.7-.99,6.32,1.71,8.07,2.7,1.76,6.31,.99,8.07-1.71,1.76-2.7,1-6.31-1.7-8.07Zm1.11,7.68c-1.55,2.37-4.72,3.04-7.09,1.5-2.37-1.54-3.04-4.72-1.5-7.09,1.54-2.37,4.72-3.04,7.09-1.5,2.37,1.54,3.04,4.71,1.5,7.08Zm-1.11-7.68c-2.7-1.76-6.32-.99-8.07,1.7-1.76,2.7-.99,6.32,1.71,8.07,2.7,1.76,6.31,.99,8.07-1.71,1.76-2.7,1-6.31-1.7-8.07Zm1.11,7.68c-1.55,2.37-4.72,3.04-7.09,1.5-2.37-1.54-3.04-4.72-1.5-7.09,1.54-2.37,4.72-3.04,7.09-1.5,2.37,1.54,3.04,4.71,1.5,7.08Zm-1.11-7.68c-2.7-1.76-6.32-.99-8.07,1.7-1.76,2.7-.99,6.32,1.71,8.07,2.7,1.76,6.31,.99,8.07-1.71,1.76-2.7,1-6.31-1.7-8.07Zm1.11,7.68c-1.55,2.37-4.72,3.04-7.09,1.5-2.37-1.54-3.04-4.72-1.5-7.09,1.54-2.37,4.72-3.04,7.09-1.5,2.37,1.54,3.04,4.71,1.5,7.08Zm2.42-13.1c-5.7-3.71-13.31-2.09-17.02,3.59-3.7,5.69-2.1,13.31,3.6,17.01,5.69,3.7,13.31,2.09,17.01-3.6,3.71-5.69,2.1-13.31-3.59-17.01Zm-1.06,13.98c-2.03,3.12-6.21,4-9.33,1.97-3.11-2.03-4-6.21-1.97-9.33,2.03-3.12,6.21-4,9.33-1.97,3.11,2.03,4,6.21,1.97,9.32Zm-.76-.49c1.76-2.7,1-6.31-1.7-8.07-2.7-1.76-6.32-.99-8.07,1.7-1.76,2.7-.99,6.32,1.71,8.07,2.7,1.76,6.31,.99,8.07-1.71Zm-.59-.39c-1.55,2.37-4.72,3.04-7.09,1.5-2.37-1.54-3.04-4.72-1.5-7.09,1.54-2.37,4.72-3.04,7.09-1.5,2.37,1.54,3.04,4.71,1.5,7.08Zm-1.11-7.68c-2.7-1.76-6.32-.99-8.07,1.7-1.76,2.7-.99,6.32,1.71,8.07,2.7,1.76,6.31,.99,8.07-1.71,1.76-2.7,1-6.31-1.7-8.07Zm1.11,7.68c-1.55,2.37-4.72,3.04-7.09,1.5-2.37-1.54-3.04-4.72-1.5-7.09,1.54-2.37,4.72-3.04,7.09-1.5,2.37,1.54,3.04,4.71,1.5,7.08Zm-1.11-7.68c-2.7-1.76-6.32-.99-8.07,1.7-1.76,2.7-.99,6.32,1.71,8.07,2.7,1.76,6.31,.99,8.07-1.71,1.76-2.7,1-6.31-1.7-8.07Zm1.11,7.68c-1.55,2.37-4.72,3.04-7.09,1.5-2.37-1.54-3.04-4.72-1.5-7.09,1.54-2.37,4.72-3.04,7.09-1.5,2.37,1.54,3.04,4.71,1.5,7.08Z"/>
              <g>
                <polygon class="cls-8" points="378.99 612.27 375.03 609.69 373.42 612.63 376.94 614.93 378.99 612.27"/>
                <polygon class="cls-8" points="372.32 606.02 371.34 601.39 368.12 602.34 368.99 606.46 372.32 606.02"/>
                <polygon class="cls-8" points="372.02 596.89 374.6 592.92 371.65 591.32 369.35 594.84 372.02 596.89"/>
                <polygon class="cls-8" points="378.26 590.21 382.89 589.24 381.94 586.02 377.83 586.88 378.26 590.21"/>
                <polygon class="cls-8" points="387.4 589.91 391.36 592.49 392.97 589.54 389.44 587.25 387.4 589.91"/>
                <polygon class="cls-8" points="394.07 596.16 395.05 600.78 398.27 599.84 397.4 595.72 394.07 596.16"/>
                <polygon class="cls-8" points="394.37 605.29 391.79 609.25 394.74 610.86 397.03 607.34 394.37 605.29"/>
                <polygon class="cls-8" points="388.12 611.96 383.5 612.94 384.45 616.16 388.56 615.29 388.12 611.96"/>
              </g>
            </g>
          </g>
          <g>
            <polygon class="cls-4" points="472.72 645.61 478.46 646.68 494.86 535.58 488.33 534.38 472.72 645.61"/>
            <g>
              <path class="cls-4" d="M422.47,628l8.52-74.23,57.34-19.39s-15.6,112.43-15.6,111.23l-50.25-17.6Z"/>
              <path class="cls-2" d="M422.47,628l8.52-74.23,57.34-19.39s-15.6,112.43-15.6,111.23l-50.25-17.6Z"/>
            </g>
          </g>
          <path class="cls-1" d="M283.52,556.78c-.93-6.15-1.44-12.35-1.82-18.55-.18-3.1-.26-6.21-.32-9.32-.06-3.11-.12-6.22-.02-9.33l.02-.82,.8-.04c11.39-.61,22.77-1.36,34.17-1.86,11.39-.56,22.79-1.07,34.19-1.43-11.37,1.03-22.74,1.91-34.11,2.73-11.37,.89-22.76,1.53-34.13,2.3l.82-.86-.05,9.28,.11,9.29c.02,3.1,.07,6.2,.16,9.3l.2,9.31Z"/>
          <path class="cls-1" d="M438.99,554.86c3.55-1.69,7.16-3.26,10.81-4.7,3.64-1.48,7.31-2.88,11.03-4.17,3.72-1.27,7.45-2.51,11.25-3.57,3.79-1.07,7.62-2.05,11.52-2.69l.96-.16-.17,.92c-.9,4.81-1.84,9.61-2.95,14.38,.42-4.88,1-9.74,1.63-14.59l.79,.76c-3.79,.9-7.54,1.96-11.29,3.07-3.74,1.12-7.47,2.3-11.2,3.51l-22.38,7.25Z"/>
          <g>
            <polygon class="cls-6" points="308.33 513.48 309.29 532.05 310.12 550.62 311.55 587.77 312.67 624.93 313.12 643.52 313.42 662.11 312.46 643.54 311.63 624.97 310.2 587.82 309.08 550.65 308.64 532.07 308.33 513.48"/>
            <path class="cls-6" d="M303.01,524.67c.36,1.6-.59,3.51-2.4,4.04-.87,.26-1.9,.18-2.75-.31-.85-.49-1.48-1.37-1.68-2.35-.19-.98,.04-2.04,.64-2.82,.6-.78,1.51-1.26,2.42-1.35,1.87-.21,3.48,1.19,3.77,2.8Zm0,0c-.17-.81-.69-1.53-1.4-1.92-.71-.39-1.54-.44-2.24-.21-1.45,.47-2.14,1.99-1.87,3.24,.23,1.25,1.46,2.4,2.98,2.27,.74-.06,1.49-.43,1.99-1.07,.5-.63,.7-1.5,.54-2.31Z"/>
            <path class="cls-6" d="M304.29,546.93c.36,1.6-.59,3.51-2.4,4.04-.87,.26-1.9,.18-2.75-.31-.85-.48-1.48-1.37-1.68-2.35-.19-.98,.04-2.04,.64-2.82,.6-.78,1.51-1.26,2.42-1.35,1.87-.21,3.48,1.19,3.77,2.8Zm0,0c-.17-.81-.69-1.53-1.4-1.92-.71-.39-1.54-.44-2.24-.21-1.45,.47-2.14,1.99-1.87,3.24,.23,1.25,1.46,2.4,2.98,2.27,.74-.06,1.49-.43,1.99-1.07,.5-.63,.7-1.5,.54-2.31Z"/>
            <path class="cls-6" d="M305.1,570.57c.36,1.6-.59,3.51-2.4,4.04-.87,.26-1.9,.18-2.75-.31-.85-.49-1.48-1.37-1.68-2.35-.19-.98,.04-2.04,.64-2.82,.6-.78,1.51-1.26,2.42-1.35,1.87-.21,3.48,1.19,3.77,2.8Zm0,0c-.17-.81-.69-1.53-1.4-1.92-.71-.39-1.54-.44-2.24-.21-1.45,.47-2.14,1.99-1.87,3.24,.23,1.25,1.46,2.4,2.98,2.27,.74-.06,1.49-.43,1.99-1.07,.5-.63,.7-1.5,.54-2.31Z"/>
            <path class="cls-6" d="M305.91,594.2c.36,1.6-.59,3.51-2.4,4.04-.87,.26-1.9,.18-2.75-.31-.85-.48-1.48-1.37-1.68-2.35-.19-.98,.04-2.04,.64-2.82,.6-.78,1.51-1.26,2.42-1.35,1.87-.21,3.48,1.19,3.77,2.8Zm0,0c-.17-.81-.69-1.53-1.4-1.92-.71-.39-1.54-.44-2.24-.21-1.45,.47-2.14,1.99-1.87,3.24,.23,1.25,1.46,2.4,2.98,2.27,.74-.06,1.49-.43,1.99-1.07,.5-.63,.7-1.5,.54-2.31Z"/>
            <path class="cls-6" d="M306.72,617.83c.36,1.6-.59,3.51-2.4,4.04-.87,.26-1.9,.18-2.75-.31-.85-.48-1.48-1.37-1.68-2.35-.19-.98,.04-2.04,.64-2.82,.6-.78,1.51-1.26,2.42-1.35,1.87-.21,3.48,1.19,3.77,2.8Zm0,0c-.17-.81-.69-1.53-1.4-1.92-.71-.39-1.54-.44-2.24-.21-1.45,.47-2.14,1.99-1.87,3.24,.23,1.25,1.46,2.4,2.98,2.27,.74-.06,1.49-.43,1.99-1.07,.5-.63,.7-1.5,.54-2.31Z"/>
            <path class="cls-6" d="M307.53,641.46c.36,1.6-.59,3.51-2.4,4.04-.87,.26-1.9,.18-2.75-.31-.85-.49-1.48-1.37-1.68-2.35-.19-.98,.04-2.04,.64-2.82,.6-.78,1.51-1.26,2.42-1.35,1.87-.21,3.48,1.19,3.77,2.8Zm0,0c-.17-.81-.69-1.53-1.4-1.92-.71-.39-1.54-.44-2.24-.21-1.45,.47-2.14,1.99-1.87,3.24,.23,1.25,1.46,2.4,2.98,2.27,.74-.06,1.49-.43,1.99-1.07,.5-.63,.7-1.5,.54-2.31Z"/>
          </g>
        </g>
        <g>
          <rect class="cls-4" x="229.96" y="690.17" width="88.3" height="10.32" transform="translate(-189.89 109.39) rotate(-16.86)"/>
          <rect class="cls-2" x="229.96" y="690.17" width="88.3" height="10.32" transform="translate(-189.89 109.39) rotate(-16.86)"/>
          <rect class="cls-4" x="266.63" y="687.67" width="10.32" height="15.33" transform="translate(-197.97 115.08) rotate(-17.64)"/>
          <g>
            <polygon class="cls-4" points="232.65 727.54 210.85 633.12 145.03 648.72 177.44 740.75 232.65 727.54"/>
            <g>
              <polygon class="cls-4" points="247.26 722.74 232.65 727.54 210.85 633.12 231.85 638.12 247.26 722.74"/>
              <polygon class="cls-3" points="247.26 722.74 232.65 727.54 210.85 633.12 231.85 638.12 247.26 722.74"/>
            </g>
          </g>
          <circle class="cls-4" cx="316.36" cy="682.53" r="11.2"/>
        </g>
        <g>
          <rect class="cls-4" x="467.22" y="651.01" width="10.32" height="88.3" transform="translate(-330.43 943.94) rotate(-73.02)"/>
          <rect class="cls-2" x="467.22" y="651.01" width="10.32" height="88.3" transform="translate(-330.43 943.94) rotate(-73.02)"/>
          <rect class="cls-4" x="467.04" y="690.01" width="15.33" height="10.32" transform="translate(-332.19 935.03) rotate(-72.23)"/>
          <g>
            <polygon class="cls-4" points="513.76 727.46 535.77 633.08 601.55 648.82 568.95 740.78 513.76 727.46"/>
            <g>
              <polygon class="cls-4" points="499.17 722.63 513.76 727.46 535.77 633.08 514.75 638.04 499.17 722.63"/>
              <polygon class="cls-3" points="499.17 722.63 513.76 727.46 535.77 633.08 514.75 638.04 499.17 722.63"/>
            </g>
          </g>
          <path class="cls-4" d="M418.95,682.25c-.01,6.19,4.99,11.21,11.18,11.23,6.19,.01,11.21-4.99,11.23-11.18,.01-6.19-4.99-11.21-11.18-11.23-6.19-.01-11.21,4.99-11.23,11.18Z"/>
        </g>
        <g>
          <g>
            <path class="cls-4" d="M503.49,565.78c.26-.25,27.41-25.42,59.34-16.81,32.65,8.81,59.61,57.99,59.88,58.49l9.08-4.91c-1.18-2.18-29.3-53.59-66.27-63.54-37.6-10.14-67.86,18.09-69.13,19.3l7.11,7.48Z"/>
            <path class="cls-2" d="M503.49,565.78c.26-.25,27.41-25.42,59.34-16.81,32.65,8.81,59.61,57.99,59.88,58.49l9.08-4.91c-1.18-2.18-29.3-53.59-66.27-63.54-37.6-10.14-67.86,18.09-69.13,19.3l7.11,7.48Z"/>
          </g>
          <path class="cls-4" d="M610.68,656.96l19.55-10.32c-1.88-3.55-4.19-9.66-4.52-15.18-.44-7.15,2.4-9.66,5.53-11.31,6.85-3.62,10.94-2.18,13.73-.54,3.92,2.31,7.9,7.05,11.22,13.33l19.55-10.32c-5.35-10.14-11.92-17.55-19.53-22.04-7.59-4.47-19.88-8.11-35.29,.03-12.02,6.34-18.15,17.78-17.27,32.21,.69,11.35,5.56,21.36,7.04,24.16Z"/>
        </g>
        <g>
          <path class="cls-10" d="M507.62,531.33c4.24-2.93,8.58-5.69,12.93-8.42,4.34-2.75,8.76-5.38,13.17-8.01,4.44-2.59,8.88-5.18,13.39-7.65l6.77-3.7c2.29-1.18,4.55-2.4,6.86-3.53-2.11,1.48-4.28,2.86-6.42,4.29l-6.51,4.13c-4.34,2.75-8.76,5.38-13.18,8-4.44,2.59-8.88,5.18-13.39,7.64-4.5,2.48-9.02,4.94-13.63,7.23Z"/>
          <path class="cls-10" d="M496.39,573.51c6.07,3.46,11.82,7.36,17.5,11.37,5.64,4.06,11.21,8.22,16.45,12.84-6.07-3.45-11.82-7.36-17.5-11.37-5.64-4.06-11.2-8.23-16.45-12.84Z"/>
          <path class="cls-10" d="M506.36,568.33c4.68,1.42,9.29,3.03,13.89,4.67,4.61,1.62,9.16,3.36,13.72,5.11,4.54,1.79,9.08,3.58,13.57,5.5l6.73,2.89c2.22,1.02,4.46,1.99,6.66,3.07-2.35-.69-4.65-1.5-6.98-2.24l-6.91-2.42c-4.61-1.62-9.16-3.36-13.72-5.12-4.54-1.79-9.08-3.58-13.57-5.51-4.5-1.9-8.98-3.84-13.39-5.95Z"/>
          <path class="cls-10" d="M519.66,535.28c4.49-1.17,9.01-2.14,13.54-3.08,4.52-.96,9.07-1.79,13.62-2.61,4.56-.78,9.11-1.56,13.69-2.2l6.87-.95c2.3-.25,4.59-.57,6.91-.77-2.24,.6-4.5,1.09-6.75,1.64l-6.79,1.45c-4.52,.96-9.07,1.79-13.62,2.61-4.56,.78-9.11,1.56-13.69,2.19-4.58,.66-9.16,1.29-13.78,1.72Z"/>
        </g>
      </g>
      <g>
        <path class="cls-10" d="M411.48,563.35c.76-3.65,1.99-7.2,3.57-10.59,1.59-3.39,3.52-6.63,5.96-9.52,2.44-2.86,5.44-5.37,9.06-6.77,3.61-1.35,7.75-1.34,11.38,.11,3.67,1.43,6.56,4.51,8.12,8.06,.81,1.77,1.32,3.67,1.53,5.61,.18,1.94,.1,3.95-.67,5.89-.39,.95-1.01,1.91-1.99,2.55-.48,.33-1.06,.52-1.63,.61-.56,.08-1.14,.06-1.8-.17-1.21-.51-1.81-1.48-2.33-2.36-.46-.91-.82-1.84-1.06-2.78-1.01-3.76-1.12-7.59-.94-11.37,.54-7.54,2.52-15.08,6.58-21.56,2.05-3.2,4.62-6.16,7.82-8.31,3.16-2.17,6.85-3.66,10.62-4.1,1.85-.45,3.77-.41,5.67-.5,.95-.1,1.89,.13,2.84,.18,.94,.12,1.9,.11,2.82,.38,3.75,.67,7.27,2.18,10.55,3.99,3.27,1.88,6.18,4.3,8.84,6.93,2.63,2.65,5.03,5.55,6.95,8.75-4.26-6.08-9.75-11.37-16.23-14.9-3.26-1.69-6.7-3.08-10.32-3.64-.89-.25-1.81-.2-2.72-.3-.91-.03-1.82-.23-2.73-.11-1.82,.13-3.65,.12-5.43,.6-3.63,.51-7.01,1.97-9.97,4.01-2.98,2.04-5.39,4.84-7.32,7.91-3.83,6.2-5.7,13.52-6.17,20.8-.2,3.64-.11,7.35,.8,10.81,.43,1.65,1.21,3.51,2.35,4.03,.15,.01,.24,.09,.42,.1,.18-.01,.37,.03,.53-.02,.34-.06,.68-.15,.96-.35,.59-.37,1.06-1.03,1.38-1.79,.63-1.53,.75-3.35,.59-5.1-.18-1.76-.63-3.51-1.36-5.13-1.43-3.24-3.96-6.05-7.23-7.42-3.26-1.38-7.08-1.5-10.46-.32-3.4,1.22-6.34,3.56-8.79,6.28-4.91,5.5-8.22,12.37-10.19,19.53Z"/>
        <path class="cls-10" d="M244.89,610.07c1.74-3.28,4.3-6.12,7.29-8.36,2.98-2.24,6.41-3.98,10.1-4.84,3.67-.88,7.61-.89,11.27,.22,3.67,1.1,6.98,3.25,9.62,5.99,2.66,2.74,4.66,6.07,6.03,9.61,1.34,3.55,2.15,7.35,1.86,11.23-.19,1.91-.58,3.97-2.09,5.63-.75,.81-1.91,1.35-3.04,1.37-1.09-.01-2.11-.17-3.11-.7-.99-.51-1.78-1.4-2.24-2.38-.46-.98-.63-2.02-.68-3.03-.07-2.02,.36-3.94,.96-5.76,1.21-3.65,3.2-6.95,5.52-9.93,2.33-2.98,5.08-5.63,8.16-7.84,6.11-4.44,13.89-6.9,21.48-5.91,3.75,.51,7.46,1.59,10.74,3.5,3.31,1.85,6.18,4.41,8.51,7.34,2.34,2.94,4.16,6.25,5.56,9.7,1.4,3.45,2.44,7.05,2.95,10.72-1.52-7.22-4.49-14.24-9.22-19.84-2.34-2.8-5.17-5.2-8.37-6.89-3.18-1.75-6.74-2.7-10.33-3.1-7.21-.78-14.53,1.52-20.34,5.82-5.81,4.28-10.56,10.24-12.97,16.99-.57,1.68-.96,3.44-.91,5.14,.04,1.68,.63,3.3,1.98,3.98,.64,.37,1.5,.51,2.25,.52,.73-.02,1.38-.31,1.9-.85,1.05-1.1,1.5-2.89,1.66-4.62,.28-3.52-.44-7.17-1.71-10.53-1.28-3.37-3.17-6.52-5.62-9.16-2.45-2.63-5.53-4.68-8.94-5.8-3.41-1.13-7.14-1.23-10.69-.48-7.1,1.51-13.68,5.95-17.59,12.25Z"/>
        <path class="cls-10" d="M161.49,174.71c-.2-7.42-1.78-14.89-5.23-21.4-1.73-3.22-4.02-6.2-7.03-8.2-3-1.95-6.74-2.75-10.23-2.19-3.51,.55-6.64,2.67-8.79,5.48-1.09,1.4-1.95,2.99-2.54,4.66-.57,1.66-.89,3.45-.65,5.09,.12,.81,.42,1.56,.91,2.06,.23,.27,.53,.44,.85,.57,.15,.08,.35,.09,.51,.14,.17,.04,.29-.02,.43,0,1.23-.23,2.43-1.86,3.25-3.35,1.71-3.14,2.68-6.73,3.35-10.31,1.28-7.18,1.21-14.74-1.03-21.67-1.14-3.44-2.81-6.73-5.22-9.42-2.4-2.69-5.32-4.91-8.73-6.28-1.61-.89-3.39-1.32-5.13-1.88-.86-.34-1.79-.35-2.68-.54-.9-.12-1.79-.38-2.71-.35-3.65-.32-7.33,.21-10.9,1.08-7.13,1.89-13.72,5.71-19.31,10.6,2.63-2.64,5.65-4.89,8.84-6.83,3.21-1.91,6.61-3.57,10.24-4.62,3.63-.98,7.41-1.6,11.2-1.36,.95-.05,1.88,.2,2.82,.3,.93,.18,1.9,.18,2.8,.5,1.82,.54,3.69,.96,5.38,1.84,3.56,1.32,6.79,3.65,9.33,6.51,2.59,2.86,4.38,6.34,5.61,9.94,2.4,7.27,2.52,15.06,1.24,22.51-.73,3.72-1.74,7.41-3.62,10.82-.46,.85-1.03,1.67-1.7,2.44-.71,.73-1.53,1.52-2.82,1.73-.69,.06-1.26-.05-1.78-.26-.53-.22-1.05-.55-1.44-.98-.8-.86-1.17-1.94-1.33-2.95-.29-2.06,.12-4.04,.76-5.88,.67-1.84,1.61-3.56,2.82-5.08,2.36-3.07,5.91-5.37,9.81-5.89,3.87-.54,7.89,.44,11.08,2.61,3.18,2.22,5.49,5.38,7.18,8.73,1.67,3.38,2.78,7,3.51,10.67,.73,3.67,1.07,7.41,.94,11.14Z"/>
        <path class="cls-10" d="M559.57,268.75c-7.26-1.53-14.89-1.75-22.03,.09-3.54,.93-6.97,2.46-9.61,4.93-2.6,2.47-4.25,5.91-4.51,9.44-.28,3.54,1.05,7.07,3.27,9.83,1.11,1.39,2.45,2.59,3.94,3.56,1.48,.95,3.15,1.68,4.8,1.82,.82,.07,1.62-.05,2.22-.4,.31-.16,.55-.41,.76-.69,.12-.13,.17-.32,.26-.47,.08-.16,.05-.28,.11-.42,.06-1.25-1.24-2.8-2.5-3.94-2.65-2.39-5.91-4.18-9.24-5.67-6.68-2.92-14.05-4.61-21.31-4.06-3.61,.31-7.2,1.16-10.38,2.88-3.17,1.7-6.02,4.03-8.14,7.02-1.24,1.36-2.07,2.99-3.02,4.55-.53,.76-.76,1.66-1.15,2.48-.33,.85-.79,1.66-.98,2.56-1.16,3.48-1.51,7.18-1.5,10.85,.18,7.37,2.35,14.67,5.8,21.25-1.95-3.18-3.43-6.63-4.58-10.19-1.11-3.57-1.93-7.26-2.1-11.03-.11-3.75,.17-7.57,1.29-11.21,.18-.94,.63-1.78,.95-2.68,.39-.86,.62-1.81,1.14-2.6,.95-1.64,1.79-3.36,3.04-4.81,2.11-3.15,5.14-5.75,8.51-7.56,3.38-1.85,7.18-2.78,10.97-3.13,7.63-.63,15.23,1.07,22.18,4.05,3.44,1.58,6.8,3.42,9.68,6.05,.72,.65,1.39,1.39,1.98,2.22,.54,.86,1.12,1.84,1.03,3.15-.1,.69-.34,1.21-.67,1.67-.34,.47-.78,.9-1.29,1.17-1.02,.58-2.16,.69-3.18,.6-2.07-.2-3.9-1.06-5.54-2.11-1.63-1.08-3.08-2.4-4.29-3.93-2.43-3.01-3.85-7-3.43-10.91,.38-3.89,2.27-7.57,5.12-10.16,2.9-2.57,6.51-4.09,10.17-4.95,3.68-.84,7.46-1.07,11.19-.93,3.74,.15,7.46,.69,11.05,1.69Z"/>
        <path class="cls-10" d="M447.96,152.11c-1.23-4.27-1.4-8.84-.7-13.25,.69-4.41,2.19-8.75,4.63-12.55,2.41-3.8,5.76-7.09,9.82-9.19,4.05-2.11,8.66-3.03,13.2-2.89,4.55,.12,9.03,1.3,13.15,3.18,4.1,1.91,7.96,4.48,10.94,8.02,1.42,1.78,2.8,3.86,2.88,6.47,.04,1.29-.49,2.67-1.41,3.6-.92,.88-1.92,1.59-3.18,1.95-1.24,.38-2.62,.29-3.8-.16-1.19-.45-2.19-1.18-3.06-1.99-1.73-1.65-2.95-3.64-3.96-5.69-2.01-4.12-3.06-8.59-3.57-13.07-.5-4.49-.37-9.05,.41-13.5,1.51-8.88,6.09-17.46,13.38-22.96,3.62-2.7,7.68-4.88,12.07-6,4.36-1.19,8.95-1.4,13.4-.86,4.46,.55,8.78,1.84,12.88,3.61,4.09,1.77,8,3.97,11.52,6.67-7.32-4.95-15.74-8.5-24.5-9.37-4.36-.44-8.8-.15-12.98,1.09-4.21,1.15-8.07,3.33-11.5,6-3.39,2.71-6.27,6.05-8.38,9.85-2.13,3.79-3.51,7.97-4.25,12.26-1.4,8.56-.5,17.68,3.12,25.51,.93,1.93,2.07,3.78,3.56,5.21,1.46,1.43,3.39,2.36,5.19,1.79,.89-.23,1.76-.84,2.44-1.49,.64-.66,.97-1.5,.96-2.43-.02-1.89-1.16-3.82-2.48-5.45-2.73-3.28-6.42-5.8-10.34-7.63-3.94-1.83-8.22-2.94-12.54-3.14-4.32-.2-8.7,.63-12.57,2.55-3.88,1.9-7.17,4.97-9.58,8.6-4.81,7.27-6.7,16.61-4.74,25.27Z"/>
        <g>
          <path class="cls-7" d="M238.87,610.47c-4.04-1.27-8.34,.97-9.62,5.01-1.27,4.04,.97,8.34,5.01,9.62,4.04,1.27,8.34-.97,9.61-5.01,1.27-4.04-.97-8.34-5-9.62Zm4.11,9.33c-1.12,3.55-4.9,5.52-8.44,4.4-3.55-1.12-5.51-4.9-4.4-8.44,1.12-3.55,4.9-5.51,8.44-4.4,3.54,1.12,5.51,4.89,4.39,8.44Zm-4.11-9.33c-4.04-1.27-8.34,.97-9.62,5.01-1.27,4.04,.97,8.34,5.01,9.62,4.04,1.27,8.34-.97,9.61-5.01,1.27-4.04-.97-8.34-5-9.62Zm4.11,9.33c-1.12,3.55-4.9,5.52-8.44,4.4-3.55-1.12-5.51-4.9-4.4-8.44,1.12-3.55,4.9-5.51,8.44-4.4,3.54,1.12,5.51,4.89,4.39,8.44Zm-4.11-9.33c-4.04-1.27-8.34,.97-9.62,5.01-1.27,4.04,.97,8.34,5.01,9.62,4.04,1.27,8.34-.97,9.61-5.01,1.27-4.04-.97-8.34-5-9.62Zm4.11,9.33c-1.12,3.55-4.9,5.52-8.44,4.4-3.55-1.12-5.51-4.9-4.4-8.44,1.12-3.55,4.9-5.51,8.44-4.4,3.54,1.12,5.51,4.89,4.39,8.44Zm-1.56-17.43c-8.52-2.68-17.59,2.05-20.27,10.55-2.68,8.51,2.04,17.59,10.56,20.27,8.51,2.68,17.58-2.05,20.26-10.56,2.68-8.5-2.04-17.59-10.55-20.26Zm3.59,18.07c-1.47,4.66-6.45,7.26-11.11,5.79-4.66-1.47-7.25-6.45-5.79-11.11,1.47-4.66,6.45-7.25,11.11-5.79,4.65,1.47,7.25,6.45,5.78,11.11Zm-1.14-.36c1.27-4.04-.97-8.34-5-9.62-4.04-1.27-8.34,.97-9.62,5.01-1.27,4.04,.97,8.34,5.01,9.62,4.04,1.27,8.34-.97,9.61-5.01Zm-.89-.28c-1.12,3.55-4.9,5.52-8.44,4.4-3.55-1.12-5.51-4.9-4.4-8.44,1.12-3.55,4.9-5.51,8.44-4.4,3.54,1.12,5.51,4.89,4.39,8.44Zm-4.11-9.33c-4.04-1.27-8.34,.97-9.62,5.01-1.27,4.04,.97,8.34,5.01,9.62,4.04,1.27,8.34-.97,9.61-5.01,1.27-4.04-.97-8.34-5-9.62Zm4.11,9.33c-1.12,3.55-4.9,5.52-8.44,4.4-3.55-1.12-5.51-4.9-4.4-8.44,1.12-3.55,4.9-5.51,8.44-4.4,3.54,1.12,5.51,4.89,4.39,8.44Zm-4.11-9.33c-4.04-1.27-8.34,.97-9.62,5.01-1.27,4.04,.97,8.34,5.01,9.62,4.04,1.27,8.34-.97,9.61-5.01,1.27-4.04-.97-8.34-5-9.62Zm4.11,9.33c-1.12,3.55-4.9,5.52-8.44,4.4-3.55-1.12-5.51-4.9-4.4-8.44,1.12-3.55,4.9-5.51,8.44-4.4,3.54,1.12,5.51,4.89,4.39,8.44Z"/>
          <g>
            <polygon class="cls-7" points="234.87 633.48 228.95 631.62 227.95 635.91 233.22 637.58 234.87 633.48"/>
            <polygon class="cls-7" points="224.22 627.93 221.35 622.42 217.61 624.76 220.16 629.66 224.22 627.93"/>
            <polygon class="cls-7" points="220.62 616.48 222.48 610.55 218.19 609.56 216.53 614.83 220.62 616.48"/>
            <polygon class="cls-7" points="226.17 605.83 231.68 602.96 229.34 599.22 224.44 601.77 226.17 605.83"/>
            <polygon class="cls-7" points="237.62 602.22 243.55 604.09 244.54 599.79 239.27 598.13 237.62 602.22"/>
            <polygon class="cls-7" points="248.27 607.77 251.14 613.28 254.88 610.95 252.33 606.05 248.27 607.77"/>
            <polygon class="cls-7" points="251.88 619.23 250.01 625.15 254.31 626.15 255.97 620.88 251.88 619.23"/>
            <polygon class="cls-7" points="246.33 629.88 240.82 632.75 243.15 636.49 248.05 633.94 246.33 629.88"/>
          </g>
        </g>
        <g>
          <g>
            <path class="cls-10" d="M537.77,558.96c8.13-10.95,5.84-26.42-5.11-34.54-10.95-8.13-26.42-5.84-34.55,5.11-8.13,10.95-5.84,26.42,5.11,34.55,10.95,8.13,26.42,5.84,34.55-5.12Zm-10.57-7.84c-3.8,5.12-11.02,6.19-16.13,2.39-5.12-3.8-6.19-11.02-2.39-16.14,3.8-5.11,11.02-6.18,16.13-2.38,5.11,3.8,6.18,11.02,2.39,16.13Z"/>
            <polygon class="cls-10" points="507.64 566.08 500.02 560.42 496.43 566.13 503.21 571.17 507.64 566.08"/>
            <polygon class="cls-10" points="495.03 552.74 493.64 543.35 487.07 544.85 488.31 553.2 495.03 552.74"/>
            <polygon class="cls-10" points="495.55 534.39 501.21 526.76 495.5 523.18 490.47 529.96 495.55 534.39"/>
            <polygon class="cls-10" points="508.89 521.78 518.29 520.39 516.78 513.82 508.43 515.06 508.89 521.78"/>
            <polygon class="cls-10" points="527.24 522.3 534.87 527.96 538.45 522.25 531.67 517.22 527.24 522.3"/>
            <polygon class="cls-10" points="539.85 535.64 541.24 545.04 547.81 543.53 546.58 535.18 539.85 535.64"/>
            <polygon class="cls-10" points="539.33 553.99 533.67 561.62 539.38 565.2 544.42 558.42 539.33 553.99"/>
            <polygon class="cls-10" points="525.99 566.6 516.6 567.99 518.1 574.56 526.46 573.33 525.99 566.6"/>
          </g>
          <path class="cls-10" d="M509.09,545.43l5.25,6.62,8.35-1.24,3.1-7.85-5.24-6.61-8.35,1.23-3.1,7.85Zm9.95-3.39c1.19,.88,1.44,2.55,.55,3.74-.88,1.19-2.55,1.44-3.74,.55-1.18-.88-1.43-2.56-.55-3.74,.88-1.19,2.56-1.43,3.74-.55Z"/>
        </g>
        <g>
          <path class="cls-10" d="M556.28,78.07c-3.54-1.11-7.3,.85-8.41,4.38-1.12,3.54,.85,7.3,4.38,8.42,3.53,1.11,7.29-.85,8.41-4.38,1.11-3.53-.85-7.3-4.38-8.41Zm3.6,8.17c-.98,3.11-4.28,4.83-7.39,3.85-3.1-.98-4.82-4.28-3.85-7.39,.98-3.1,4.28-4.82,7.39-3.85,3.1,.98,4.82,4.28,3.84,7.39Zm-3.6-8.17c-3.54-1.11-7.3,.85-8.41,4.38-1.12,3.54,.85,7.3,4.38,8.42,3.53,1.11,7.29-.85,8.41-4.38,1.11-3.53-.85-7.3-4.38-8.41Zm3.6,8.17c-.98,3.11-4.28,4.83-7.39,3.85-3.1-.98-4.82-4.28-3.85-7.39,.98-3.1,4.28-4.82,7.39-3.85,3.1,.98,4.82,4.28,3.84,7.39Zm-3.6-8.17c-3.54-1.11-7.3,.85-8.41,4.38-1.12,3.54,.85,7.3,4.38,8.42,3.53,1.11,7.29-.85,8.41-4.38,1.11-3.53-.85-7.3-4.38-8.41Zm3.6,8.17c-.98,3.11-4.28,4.83-7.39,3.85-3.1-.98-4.82-4.28-3.85-7.39,.98-3.1,4.28-4.82,7.39-3.85,3.1,.98,4.82,4.28,3.84,7.39Zm-1.36-15.25c-7.45-2.35-15.39,1.79-17.74,9.24-2.35,7.45,1.79,15.39,9.24,17.73,7.44,2.34,15.39-1.79,17.73-9.24,2.35-7.44-1.79-15.39-9.23-17.73Zm3.14,15.81c-1.29,4.08-5.64,6.35-9.72,5.07-4.08-1.28-6.35-5.64-5.06-9.72,1.29-4.08,5.65-6.35,9.72-5.06,4.07,1.28,6.34,5.64,5.06,9.72Zm-1-.31c1.11-3.53-.85-7.3-4.38-8.41-3.54-1.11-7.3,.85-8.41,4.38-1.12,3.54,.85,7.3,4.38,8.42,3.53,1.11,7.29-.85,8.41-4.38Zm-.78-.25c-.98,3.11-4.28,4.83-7.39,3.85-3.1-.98-4.82-4.28-3.85-7.39,.98-3.1,4.28-4.82,7.39-3.85,3.1,.98,4.82,4.28,3.84,7.39Zm-3.6-8.17c-3.54-1.11-7.3,.85-8.41,4.38-1.12,3.54,.85,7.3,4.38,8.42,3.53,1.11,7.29-.85,8.41-4.38,1.11-3.53-.85-7.3-4.38-8.41Zm3.6,8.17c-.98,3.11-4.28,4.83-7.39,3.85-3.1-.98-4.82-4.28-3.85-7.39,.98-3.1,4.28-4.82,7.39-3.85,3.1,.98,4.82,4.28,3.84,7.39Zm-3.6-8.17c-3.54-1.11-7.3,.85-8.41,4.38-1.12,3.54,.85,7.3,4.38,8.42,3.53,1.11,7.29-.85,8.41-4.38,1.11-3.53-.85-7.3-4.38-8.41Zm3.6,8.17c-.98,3.11-4.28,4.83-7.39,3.85-3.1-.98-4.82-4.28-3.85-7.39,.98-3.1,4.28-4.82,7.39-3.85,3.1,.98,4.82,4.28,3.84,7.39Z"/>
          <g>
            <polygon class="cls-10" points="552.78 98.21 547.6 96.58 546.73 100.34 551.34 101.79 552.78 98.21"/>
            <polygon class="cls-10" points="543.46 93.35 540.95 88.53 537.68 90.58 539.91 94.87 543.46 93.35"/>
            <polygon class="cls-10" points="540.31 83.33 541.94 78.15 538.18 77.28 536.73 81.89 540.31 83.33"/>
            <polygon class="cls-10" points="545.17 74.01 549.99 71.5 547.94 68.23 543.66 70.46 545.17 74.01"/>
            <polygon class="cls-10" points="555.19 70.86 560.37 72.49 561.24 68.73 556.63 67.28 555.19 70.86"/>
            <polygon class="cls-10" points="564.51 75.71 567.02 80.54 570.29 78.49 568.06 74.2 564.51 75.71"/>
            <polygon class="cls-10" points="567.66 85.74 566.03 90.92 569.79 91.79 571.24 87.18 567.66 85.74"/>
            <polygon class="cls-10" points="562.81 95.06 557.98 97.57 560.03 100.84 564.32 98.61 562.81 95.06"/>
          </g>
        </g>
        <g>
          <path class="cls-10" d="M487.39,335.62c-3.54-1.11-7.3,.85-8.41,4.38-1.11,3.54,.85,7.3,4.38,8.42,3.53,1.11,7.29-.85,8.41-4.38,1.11-3.53-.85-7.3-4.38-8.41Zm3.6,8.17c-.98,3.11-4.28,4.83-7.39,3.85s-4.82-4.28-3.85-7.39c.98-3.1,4.28-4.82,7.39-3.85,3.1,.98,4.82,4.28,3.84,7.39Zm-3.6-8.17c-3.54-1.11-7.3,.85-8.41,4.38-1.11,3.54,.85,7.3,4.38,8.42,3.53,1.11,7.29-.85,8.41-4.38,1.11-3.53-.85-7.3-4.38-8.41Zm3.6,8.17c-.98,3.11-4.28,4.83-7.39,3.85s-4.82-4.28-3.85-7.39c.98-3.1,4.28-4.82,7.39-3.85,3.1,.98,4.82,4.28,3.84,7.39Zm-3.6-8.17c-3.54-1.11-7.3,.85-8.41,4.38-1.11,3.54,.85,7.3,4.38,8.42,3.53,1.11,7.29-.85,8.41-4.38,1.11-3.53-.85-7.3-4.38-8.41Zm3.6,8.17c-.98,3.11-4.28,4.83-7.39,3.85s-4.82-4.28-3.85-7.39c.98-3.1,4.28-4.82,7.39-3.85,3.1,.98,4.82,4.28,3.84,7.39Zm-1.36-15.25c-7.45-2.35-15.39,1.79-17.74,9.24-2.35,7.45,1.79,15.39,9.24,17.73,7.44,2.34,15.39-1.79,17.73-9.24,2.35-7.44-1.79-15.39-9.23-17.73Zm3.14,15.81c-1.29,4.08-5.64,6.35-9.72,5.07s-6.35-5.64-5.06-9.72c1.29-4.08,5.65-6.35,9.72-5.06,4.07,1.28,6.34,5.64,5.06,9.72Zm-1-.31c1.11-3.53-.85-7.3-4.38-8.41-3.54-1.11-7.3,.85-8.41,4.38-1.11,3.54,.85,7.3,4.38,8.42,3.53,1.11,7.29-.85,8.41-4.38Zm-.78-.25c-.98,3.11-4.28,4.83-7.39,3.85s-4.82-4.28-3.85-7.39c.98-3.1,4.28-4.82,7.39-3.85,3.1,.98,4.82,4.28,3.84,7.39Zm-3.6-8.17c-3.54-1.11-7.3,.85-8.41,4.38-1.11,3.54,.85,7.3,4.38,8.42,3.53,1.11,7.29-.85,8.41-4.38,1.11-3.53-.85-7.3-4.38-8.41Zm3.6,8.17c-.98,3.11-4.28,4.83-7.39,3.85s-4.82-4.28-3.85-7.39c.98-3.1,4.28-4.82,7.39-3.85,3.1,.98,4.82,4.28,3.84,7.39Zm-3.6-8.17c-3.54-1.11-7.3,.85-8.41,4.38-1.11,3.54,.85,7.3,4.38,8.42,3.53,1.11,7.29-.85,8.41-4.38,1.11-3.53-.85-7.3-4.38-8.41Zm3.6,8.17c-.98,3.11-4.28,4.83-7.39,3.85s-4.82-4.28-3.85-7.39c.98-3.1,4.28-4.82,7.39-3.85,3.1,.98,4.82,4.28,3.84,7.39Z"/>
          <g>
            <polygon class="cls-10" points="483.89 355.76 478.7 354.13 477.83 357.89 482.45 359.34 483.89 355.76"/>
            <polygon class="cls-10" points="474.57 350.91 472.06 346.09 468.79 348.13 471.02 352.42 474.57 350.91"/>
            <polygon class="cls-10" points="471.42 340.88 473.05 335.7 469.29 334.83 467.84 339.44 471.42 340.88"/>
            <polygon class="cls-10" points="476.27 331.57 481.09 329.06 479.05 325.78 474.76 328.01 476.27 331.57"/>
            <polygon class="cls-10" points="486.3 328.41 491.48 330.05 492.35 326.28 487.74 324.83 486.3 328.41"/>
            <polygon class="cls-10" points="495.61 333.27 498.12 338.09 501.4 336.05 499.17 331.76 495.61 333.27"/>
            <polygon class="cls-10" points="498.77 343.29 497.13 348.48 500.9 349.35 502.35 344.73 498.77 343.29"/>
            <polygon class="cls-10" points="493.91 352.61 489.09 355.12 491.13 358.39 495.42 356.16 493.91 352.61"/>
          </g>
        </g>
        <g>
          <g>
            <path class="cls-10" d="M93.11,132.86c2.78-11.41-4.22-22.91-15.63-25.69-11.41-2.78-22.92,4.22-25.7,15.62-2.78,11.41,4.22,22.92,15.63,25.7,11.41,2.78,22.91-4.22,25.69-15.63Zm-11.01-2.68c-1.3,5.33-6.67,8.6-12,7.3-5.33-1.3-8.6-6.67-7.3-12,1.3-5.33,6.67-8.59,12-7.29,5.33,1.3,8.59,6.67,7.3,12Z"/>
            <polygon class="cls-10" points="71.6 148.6 63.65 146.66 62.72 152.4 69.79 154.12 71.6 148.6"/>
            <polygon class="cls-10" points="57.13 142.24 52.88 135.25 48.17 138.65 51.95 144.86 57.13 142.24"/>
            <polygon class="cls-10" points="51.39 127.51 53.33 119.57 47.6 118.63 45.88 125.7 51.39 127.51"/>
            <polygon class="cls-10" points="57.75 113.04 64.74 108.79 61.35 104.08 55.13 107.86 57.75 113.04"/>
            <polygon class="cls-10" points="72.48 107.31 80.43 109.24 81.36 103.51 74.29 101.79 72.48 107.31"/>
            <polygon class="cls-10" points="86.95 113.67 91.2 120.65 95.91 117.26 92.13 111.05 86.95 113.67"/>
            <polygon class="cls-10" points="92.69 128.4 90.75 136.34 96.48 137.27 98.2 130.21 92.69 128.4"/>
            <polygon class="cls-10" points="86.32 142.87 79.34 147.12 82.73 151.83 88.95 148.05 86.32 142.87"/>
          </g>
          <path class="cls-10" d="M65.83,131.73l6.38,3.49,6.21-3.78-.17-7.26-6.37-3.49-6.21,3.78,.17,7.27Zm6.76-6.02c1.24,.3,2,1.55,1.69,2.78-.3,1.23-1.54,2-2.78,1.69-1.23-.3-1.99-1.55-1.69-2.78,.3-1.24,1.55-1.99,2.78-1.69Z"/>
        </g>
      </g>
      <g>
        <g>
          <path class="cls-1" d="M573.67,352.7c-4.85-7.39-7.58-15.69-7.58-24.47,0-31,34.04-56.14,76.01-56.14s75.98,25.14,75.98,56.14-34.01,56.13-75.98,56.13c-20.35,0-38.8-5.9-52.43-15.53l-26.18,6.66,10.17-22.79Z"/>
          <path class="cls-10" d="M573.67,352.7c-4.58-6.82-7.44-14.87-7.74-23.14-.23-8.25,1.81-16.6,6.04-23.74,4.14-7.19,10.05-13.26,16.72-18.14,6.68-4.91,14.2-8.61,22.04-11.22,7.85-2.62,16.03-4.2,24.28-4.85,8.26-.6,16.58-.09,24.74,1.26,2.03,.42,4.09,.69,6.09,1.23l6,1.61,5.86,2.07c1.95,.7,3.8,1.65,5.71,2.47,7.49,3.56,14.5,8.23,20.4,14.12,5.89,5.87,10.64,13.03,13.14,21.05,2.5,7.99,2.68,16.76,.25,24.8-2.37,8.06-7,15.31-12.81,21.25-5.82,5.97-12.78,10.72-20.23,14.36-7.45,3.68-15.47,6.08-23.6,7.56-8.15,1.4-16.47,2-24.72,1.42-8.25-.52-16.45-2.03-24.3-4.62-7.84-2.58-15.39-6.19-22.11-11.02l.34,.06-26.23,6.45-.4,.1,.17-.37,10.35-22.71Zm0,0l-9.99,22.87-.23-.27,26.13-6.86,.18-.05,.16,.11c13.48,9.31,29.74,14.15,46.01,15.02,8.16,.5,16.36-.16,24.37-1.61,8-1.49,15.89-3.87,23.18-7.5,7.29-3.59,14.09-8.26,19.73-14.08,5.63-5.8,10.09-12.82,12.34-20.57,2.32-7.73,2.1-16.12-.3-23.79-2.38-7.7-6.94-14.65-12.64-20.37-5.72-5.74-12.56-10.33-19.89-13.84-1.87-.8-3.68-1.74-5.59-2.44l-5.75-2.05-5.9-1.6c-1.97-.53-3.99-.81-5.99-1.22-8.03-1.36-16.22-1.86-24.37-1.33-8.14,.58-16.22,2.06-23.98,4.58-7.76,2.5-15.21,6.09-21.83,10.86-6.62,4.75-12.45,10.68-16.66,17.68-4.28,6.96-6.42,15.16-6.33,23.34,.17,8.2,2.89,16.26,7.36,23.15Z"/>
        </g>
        <g>
          <path class="cls-10" d="M603.01,337.42v4.17h-17.01v-24.5h16.7v4.18h-11.94v5.9h10.31v3.86h-10.31v6.38h12.25Z"/>
          <path class="cls-10" d="M606.73,341.6v-24.5h10.83c1.13,0,2.17,.24,3.12,.71,.95,.47,1.78,1.09,2.47,1.86,.69,.77,1.23,1.65,1.62,2.62,.39,.98,.59,1.96,.59,2.95,0,1.59-.4,3.03-1.19,4.33-.79,1.3-1.87,2.24-3.23,2.81l5.59,9.21h-5.35l-5-8.21h-4.69v8.21h-4.76Zm4.76-12.39h5.97c.44,0,.84-.1,1.22-.31,.38-.21,.71-.49,.98-.85,.28-.36,.49-.78,.65-1.26,.16-.48,.24-1,.24-1.55s-.09-1.1-.28-1.59c-.18-.48-.43-.9-.74-1.26-.31-.36-.67-.63-1.07-.83-.4-.2-.81-.29-1.23-.29h-5.76v7.93Z"/>
          <path class="cls-10" d="M629.67,341.6v-24.5h10.83c1.13,0,2.17,.24,3.12,.71,.95,.47,1.78,1.09,2.47,1.86,.69,.77,1.23,1.65,1.62,2.62,.39,.98,.59,1.96,.59,2.95,0,1.59-.4,3.03-1.19,4.33-.79,1.3-1.87,2.24-3.23,2.81l5.59,9.21h-5.35l-5-8.21h-4.69v8.21h-4.76Zm4.76-12.39h5.97c.44,0,.85-.1,1.22-.31,.38-.21,.71-.49,.98-.85,.28-.36,.49-.78,.65-1.26,.16-.48,.24-1,.24-1.55s-.09-1.1-.28-1.59c-.18-.48-.43-.9-.74-1.26-.31-.36-.67-.63-1.07-.83-.4-.2-.81-.29-1.23-.29h-5.76v7.93Z"/>
          <path class="cls-10" d="M663.07,341.77c-1.79,0-3.42-.35-4.88-1.05-1.46-.7-2.71-1.63-3.76-2.79-1.05-1.16-1.86-2.49-2.43-3.98-.57-1.49-.86-3.02-.86-4.59s.3-3.2,.91-4.69c.61-1.49,1.45-2.82,2.52-3.97,1.07-1.15,2.34-2.06,3.81-2.74,1.47-.68,3.07-1.02,4.8-1.02s3.39,.36,4.85,1.09c1.46,.72,2.71,1.67,3.74,2.85,1.04,1.17,1.84,2.51,2.42,4,.58,1.5,.86,3.01,.86,4.55,0,1.63-.3,3.19-.9,4.67-.6,1.48-1.43,2.79-2.48,3.93-1.06,1.14-2.32,2.05-3.8,2.73-1.47,.68-3.07,1.02-4.8,1.02Zm-7.11-12.42c0,1.06,.16,2.08,.48,3.07,.32,.99,.79,1.86,1.4,2.62s1.36,1.37,2.24,1.83c.89,.46,1.89,.69,3.02,.69s2.17-.24,3.05-.71c.89-.47,1.63-1.1,2.24-1.88,.61-.78,1.07-1.66,1.38-2.64,.31-.98,.46-1.97,.46-2.98s-.17-2.08-.5-3.07c-.33-.99-.8-1.86-1.41-2.62-.61-.76-1.36-1.36-2.24-1.81-.89-.45-1.88-.67-2.98-.67s-2.17,.24-3.07,.71c-.9,.47-1.65,1.09-2.24,1.86-.6,.77-1.05,1.65-1.36,2.62-.31,.98-.47,1.97-.47,2.98Z"/>
          <path class="cls-10" d="M678.7,341.6v-24.5h10.83c1.13,0,2.17,.24,3.12,.71,.95,.47,1.78,1.09,2.47,1.86,.69,.77,1.23,1.65,1.62,2.62,.39,.98,.59,1.96,.59,2.95,0,1.59-.4,3.03-1.19,4.33-.79,1.3-1.87,2.24-3.23,2.81l5.59,9.21h-5.35l-5-8.21h-4.69v8.21h-4.76Zm4.76-12.39h5.97c.44,0,.84-.1,1.22-.31,.38-.21,.71-.49,.98-.85,.28-.36,.49-.78,.65-1.26,.16-.48,.24-1,.24-1.55s-.09-1.1-.28-1.59c-.18-.48-.43-.9-.74-1.26-.31-.36-.67-.63-1.07-.83-.4-.2-.81-.29-1.23-.29h-5.76v7.93Z"/>
        </g>
      </g>
    </g>
  </g>
</svg>